<svg id="svg" version="1.1" xmlns="http://www.w3.org/2000/svg" xmlns:xlink="http://www.w3.org/1999/xlink" width="100" height="100.95238095238096" viewBox="0, 0, 400,380.95238095238096"><g id="svgg"><path id="path0" d="M188.571 34.689 C 184.486 34.838,180.286 35.165,179.238 35.415 C 178.190 35.664,175.887 36.106,174.119 36.397 C 172.352 36.688,170.295 37.166,169.548 37.460 C 168.801 37.753,167.505 38.116,166.667 38.266 C 165.829 38.417,164.608 38.869,163.955 39.270 C 163.302 39.672,162.562 40.000,162.312 40.000 C 161.769 40.000,157.162 42.169,155.810 43.062 C 155.286 43.408,154.088 44.189,153.148 44.798 C 150.597 46.450,144.683 52.343,142.799 55.111 C 140.342 58.718,136.762 65.193,136.762 66.027 C 136.762 66.375,134.994 70.371,134.456 71.238 C 134.261 71.552,133.666 72.581,133.133 73.524 C 132.599 74.467,131.762 75.924,131.272 76.762 C 130.782 77.600,129.315 80.429,128.013 83.048 C 126.710 85.667,125.317 88.433,124.917 89.195 C 124.518 89.957,124.190 90.816,124.190 91.105 C 124.190 91.394,123.848 92.270,123.429 93.052 C 123.010 93.834,122.667 94.667,122.667 94.903 C 122.667 95.140,122.265 96.298,121.775 97.476 C 120.431 100.707,119.622 103.166,119.011 105.875 C 118.708 107.221,118.298 108.517,118.101 108.755 C 117.903 108.994,117.487 110.758,117.177 112.676 C 116.867 114.594,116.451 116.469,116.253 116.843 C 116.055 117.218,115.689 119.152,115.440 121.143 C 115.191 123.133,114.715 125.790,114.382 127.048 C 113.502 130.366,113.501 139.157,114.381 140.895 C 114.737 141.598,115.140 142.798,115.277 143.562 C 115.525 144.950,116.718 148.166,118.053 151.048 C 118.441 151.886,119.195 153.514,119.729 154.667 C 120.263 155.819,120.884 157.190,121.109 157.714 C 121.334 158.238,121.687 158.924,121.893 159.238 C 122.099 159.552,122.525 160.410,122.840 161.143 C 123.155 161.876,123.565 162.733,123.750 163.048 C 124.366 164.092,126.014 167.796,126.292 168.762 C 126.443 169.286,126.784 169.971,127.050 170.286 C 127.316 170.600,127.658 171.457,127.810 172.190 C 127.962 172.924,128.436 174.295,128.863 175.238 C 131.052 180.067,129.815 186.875,125.645 192.952 C 124.639 194.419,123.600 195.938,123.336 196.329 C 123.073 196.719,122.429 197.603,121.905 198.292 C 120.367 200.316,116.956 206.644,116.954 207.475 C 116.953 207.711,116.622 208.654,116.219 209.571 C 113.461 215.838,114.506 232.811,118.130 240.613 C 118.530 241.474,118.857 242.313,118.857 242.478 C 118.857 242.835,121.151 247.418,122.670 250.095 C 123.264 251.143,124.012 252.514,124.332 253.143 C 124.653 253.771,125.424 254.971,126.046 255.810 C 126.669 256.648,127.891 258.481,128.763 259.884 C 129.635 261.287,130.591 262.636,130.888 262.883 C 131.185 263.130,131.429 263.547,131.429 263.810 C 131.429 264.072,131.698 264.511,132.028 264.785 C 132.357 265.059,132.969 265.894,133.386 266.641 C 133.804 267.389,134.559 268.686,135.064 269.524 C 136.531 271.960,137.614 273.989,139.157 277.194 C 139.950 278.842,140.936 280.824,141.347 281.599 C 141.759 282.374,142.095 283.324,142.095 283.709 C 142.095 284.095,142.437 285.080,142.854 285.898 C 143.271 286.716,143.713 287.995,143.836 288.741 C 143.958 289.486,144.421 290.952,144.864 292.000 C 146.133 294.999,146.128 308.630,144.857 310.249 C 144.386 310.849,144.000 311.542,144.000 311.787 C 144.000 312.032,143.571 312.814,143.048 313.524 C 142.524 314.234,142.095 315.124,142.095 315.503 C 142.095 315.881,141.838 316.190,141.524 316.190 C 141.210 316.190,140.952 316.362,140.952 316.571 C 140.952 317.014,141.838 317.083,142.248 316.672 C 142.402 316.518,143.502 316.102,144.693 315.748 C 148.096 314.734,150.585 313.760,151.609 313.042 C 152.127 312.678,152.903 312.381,153.333 312.381 C 153.764 312.381,154.533 312.081,155.043 311.714 C 155.552 311.348,156.610 310.705,157.393 310.286 C 161.345 308.171,169.413 301.100,171.326 298.075 C 171.584 297.667,172.251 296.648,172.808 295.810 C 173.365 294.972,173.991 293.772,174.201 293.143 C 174.410 292.514,174.883 291.657,175.251 291.238 C 175.619 290.819,176.044 289.705,176.196 288.762 C 176.348 287.819,176.752 286.362,177.093 285.524 C 177.998 283.304,177.972 270.552,177.059 268.491 C 176.714 267.713,176.312 266.256,176.166 265.253 C 176.020 264.249,175.603 262.829,175.240 262.095 C 174.876 261.362,174.456 260.076,174.305 259.238 C 174.154 258.400,173.789 257.444,173.492 257.114 C 172.919 256.474,172.129 252.979,172.443 252.470 C 173.457 250.831,172.989 231.538,171.886 229.476 C 171.675 229.081,171.326 227.816,171.112 226.665 C 170.737 224.656,170.510 224.355,165.456 219.192 C 162.560 216.234,159.898 213.405,159.540 212.907 C 159.182 212.408,158.483 211.486,157.986 210.857 C 156.634 209.146,153.702 204.864,152.898 203.426 C 150.474 199.090,148.526 195.490,148.159 194.667 C 147.925 194.143,147.322 192.840,146.819 191.771 C 146.316 190.703,145.905 189.672,145.905 189.480 C 145.905 189.288,145.585 188.534,145.194 187.804 C 144.803 187.074,144.353 185.876,144.195 185.143 C 144.037 184.410,143.585 183.173,143.192 182.396 C 142.798 181.619,142.476 180.625,142.476 180.188 C 142.476 179.703,142.031 179.140,141.332 178.744 C 140.703 178.387,140.095 177.805,139.980 177.450 C 139.685 176.536,140.840 169.110,141.485 167.778 C 141.781 167.167,142.147 165.896,142.299 164.954 C 142.451 164.013,142.895 162.644,143.287 161.912 C 143.679 161.181,144.000 160.147,144.000 159.614 C 144.000 159.082,144.263 158.271,144.584 157.813 C 144.905 157.354,145.425 156.245,145.741 155.347 C 146.303 153.747,147.517 150.940,148.218 149.619 C 148.412 149.252,148.715 148.652,148.891 148.286 C 149.066 147.919,149.490 147.105,149.833 146.476 C 150.176 145.848,150.803 144.648,151.226 143.810 C 152.913 140.468,154.763 137.293,155.458 136.547 C 155.861 136.114,156.191 135.600,156.191 135.404 C 156.191 135.208,156.872 134.105,157.704 132.952 C 158.536 131.800,159.503 130.343,159.852 129.714 C 160.415 128.703,161.328 127.450,162.742 125.751 C 162.987 125.457,163.786 124.343,164.518 123.275 C 165.249 122.207,167.575 119.215,169.686 116.626 C 171.797 114.038,173.781 111.551,174.095 111.100 C 174.410 110.649,175.095 109.846,175.619 109.315 C 176.143 108.785,178.029 106.730,179.810 104.749 C 184.721 99.286,195.734 88.381,196.340 88.381 C 197.134 88.381,202.405 91.241,204.381 92.745 C 212.751 99.114,225.738 111.617,232.097 119.429 C 235.080 123.092,237.863 126.681,239.268 128.678 C 240.195 129.994,241.432 131.708,242.019 132.488 C 242.606 133.267,243.341 134.419,243.653 135.048 C 243.965 135.676,244.730 136.876,245.354 137.714 C 245.977 138.552,246.749 139.752,247.070 140.381 C 247.391 141.010,248.152 142.381,248.762 143.429 C 249.372 144.476,250.148 145.933,250.486 146.667 C 250.824 147.400,251.793 149.457,252.638 151.238 C 255.754 157.805,256.000 158.375,256.000 159.034 C 256.000 159.403,256.318 160.329,256.708 161.091 C 257.097 161.853,257.683 163.505,258.011 164.762 C 258.338 166.019,258.784 167.733,259.001 168.571 C 260.911 175.944,261.116 178.286,259.850 178.286 C 258.908 178.286,257.524 179.379,257.524 180.122 C 257.524 180.480,257.207 181.371,256.820 182.101 C 256.433 182.831,255.995 183.943,255.846 184.571 C 255.535 185.885,253.993 189.955,252.960 192.190 C 252.572 193.029,252.071 194.143,251.845 194.667 C 251.619 195.190,251.273 195.876,251.077 196.190 C 250.880 196.505,249.828 198.390,248.738 200.381 C 246.521 204.429,245.086 206.691,244.095 207.701 C 243.729 208.075,243.429 208.541,243.429 208.737 C 243.429 209.467,237.851 215.955,233.714 220.036 L 229.430 224.262 228.416 228.196 C 227.118 233.235,226.573 241.419,227.123 247.619 C 227.679 253.891,227.621 256.114,226.862 257.587 C 225.906 259.441,224.386 263.900,223.961 266.095 C 223.758 267.143,223.313 269.114,222.972 270.476 C 222.043 274.183,222.142 281.221,223.180 285.385 C 223.631 287.195,224.000 288.945,224.000 289.275 C 224.000 289.605,224.329 290.182,224.731 290.557 C 225.133 290.931,225.585 291.752,225.735 292.381 C 225.884 293.010,226.221 293.781,226.483 294.095 C 226.745 294.410,227.365 295.418,227.860 296.337 C 228.356 297.256,228.933 298.288,229.143 298.630 C 229.709 299.556,236.613 306.418,237.714 307.151 C 238.238 307.499,239.438 308.330,240.381 308.996 C 241.324 309.663,243.981 311.140,246.286 312.279 C 248.590 313.418,251.110 314.678,251.885 315.080 C 252.660 315.481,253.695 315.810,254.185 315.810 C 254.676 315.810,255.749 316.152,256.571 316.571 C 258.954 317.786,260.894 317.228,259.162 315.826 C 254.789 312.284,252.735 300.694,255.186 293.379 C 255.634 292.042,256.000 290.631,256.000 290.244 C 256.000 289.457,257.503 285.408,258.897 282.438 C 259.399 281.370,259.810 280.233,259.810 279.913 C 259.810 279.593,260.058 279.125,260.361 278.873 C 260.665 278.621,261.115 277.786,261.362 277.017 C 261.609 276.248,262.026 275.362,262.289 275.048 C 262.552 274.733,262.893 274.048,263.048 273.524 C 263.202 273.000,263.551 272.314,263.824 272.000 C 264.096 271.686,264.930 270.274,265.677 268.863 C 266.424 267.452,267.304 265.995,267.633 265.625 C 267.962 265.255,269.245 263.410,270.485 261.524 C 271.724 259.638,272.914 257.838,273.128 257.524 C 273.343 257.210,274.060 256.095,274.721 255.048 C 275.383 254.000,276.317 252.543,276.797 251.810 C 278.038 249.913,280.674 244.666,281.188 243.067 C 281.427 242.323,281.767 241.531,281.943 241.307 C 282.503 240.596,284.454 234.190,284.893 231.619 C 285.126 230.257,285.484 228.371,285.689 227.429 C 286.151 225.303,286.176 219.001,285.731 216.952 C 285.548 216.114,285.110 213.982,284.757 212.214 C 284.404 210.445,283.789 208.391,283.391 207.648 C 282.992 206.905,282.667 206.086,282.667 205.828 C 282.667 205.111,279.986 200.465,277.714 197.247 C 276.610 195.682,274.360 192.319,273.313 190.667 C 270.514 186.251,269.717 180.806,271.238 176.480 C 271.657 175.288,272.000 174.078,272.000 173.791 C 272.000 173.175,275.413 165.103,276.220 163.810 C 276.416 163.495,276.765 162.810,276.994 162.286 C 278.140 159.671,279.807 156.318,280.214 155.810 C 280.466 155.495,280.795 154.810,280.946 154.286 C 281.198 153.408,281.975 151.611,283.845 147.577 C 284.245 146.716,284.571 145.786,284.571 145.511 C 284.571 145.235,285.021 143.711,285.572 142.124 C 286.828 138.500,286.714 128.196,285.351 122.095 C 284.929 120.210,284.582 117.978,284.578 117.135 C 284.574 116.293,284.240 114.407,283.835 112.945 C 283.430 111.482,282.977 109.343,282.830 108.190 C 282.682 107.038,282.266 105.324,281.905 104.381 C 281.544 103.438,281.129 101.737,280.984 100.601 C 280.838 99.465,280.525 98.179,280.289 97.744 C 280.054 97.308,279.561 95.924,279.196 94.667 C 278.140 91.037,277.327 88.692,276.540 87.006 C 276.138 86.145,275.810 85.294,275.810 85.116 C 275.810 84.937,275.052 83.241,274.127 81.348 C 273.201 79.454,272.176 77.305,271.849 76.571 C 271.521 75.838,271.040 74.895,270.779 74.476 C 270.518 74.057,269.941 73.114,269.496 72.381 C 267.265 68.704,263.437 63.199,260.867 59.973 C 258.423 56.904,248.455 47.182,245.861 45.335 C 241.800 42.446,237.664 40.002,236.825 39.998 C 236.581 39.996,235.867 39.716,235.238 39.375 C 234.610 39.033,233.238 38.530,232.190 38.257 C 231.143 37.984,229.600 37.501,228.762 37.183 C 227.924 36.865,226.638 36.595,225.905 36.584 C 225.171 36.572,223.200 36.217,221.524 35.794 C 219.238 35.218,216.287 34.937,209.714 34.667 C 200.261 34.279,199.710 34.280,188.571 34.689 M214.686 39.098 C 215.933 39.439,217.981 39.945,219.238 40.224 C 221.587 40.744,226.408 42.318,227.671 42.976 C 228.061 43.180,229.581 43.945,231.048 44.677 C 235.575 46.935,241.015 50.852,244.190 54.140 C 247.496 57.563,249.082 59.419,250.274 61.258 C 250.980 62.347,251.683 63.238,251.836 63.238 C 251.990 63.238,252.314 63.710,252.556 64.286 C 252.798 64.862,253.491 66.190,254.097 67.238 C 255.670 69.961,257.905 74.567,257.905 75.087 C 257.905 75.330,258.227 76.064,258.620 76.717 C 259.014 77.370,259.444 78.514,259.576 79.259 C 259.708 80.005,260.158 81.284,260.575 82.102 C 260.992 82.920,261.333 84.153,261.333 84.841 C 261.333 85.529,261.668 87.079,262.078 88.284 C 262.737 90.226,263.614 97.149,263.618 100.435 C 263.620 102.532,261.935 102.191,259.116 99.524 C 258.839 99.262,258.380 99.048,258.097 99.048 C 257.814 99.048,257.098 98.655,256.505 98.176 C 255.913 97.696,255.000 97.097,254.476 96.845 C 253.952 96.593,253.267 96.222,252.952 96.020 C 251.900 95.346,247.445 93.333,247.005 93.333 C 246.765 93.333,246.365 93.087,246.116 92.786 C 245.866 92.486,245.116 92.126,244.450 91.987 C 243.783 91.848,242.810 91.462,242.286 91.129 C 241.762 90.796,240.476 90.306,239.429 90.040 C 238.381 89.774,236.581 89.212,235.429 88.791 C 234.276 88.369,232.939 88.019,232.457 88.012 C 231.975 88.006,231.050 87.725,230.401 87.390 C 229.751 87.054,228.003 86.614,226.515 86.412 C 225.027 86.210,222.952 85.801,221.905 85.503 C 217.146 84.149,197.575 82.999,192.571 83.780 C 191.105 84.008,187.455 84.366,184.461 84.575 C 181.393 84.789,178.430 85.200,177.671 85.517 C 176.931 85.827,175.180 86.193,173.782 86.331 C 172.383 86.469,170.638 86.878,169.905 87.241 C 169.171 87.603,167.718 88.024,166.676 88.177 C 165.633 88.329,164.176 88.757,163.438 89.128 C 162.699 89.498,161.410 89.925,160.571 90.076 C 159.733 90.226,158.513 90.678,157.860 91.080 C 157.206 91.481,156.330 91.810,155.911 91.810 C 155.493 91.810,154.742 92.129,154.242 92.519 C 153.742 92.909,152.905 93.361,152.381 93.523 C 151.416 93.821,148.095 95.386,147.048 96.036 C 146.733 96.231,145.790 96.742,144.952 97.171 C 142.492 98.431,141.247 99.183,139.467 100.487 C 136.926 102.347,135.628 102.199,136.017 100.095 C 136.182 99.205,136.517 96.432,136.762 93.933 C 137.012 91.380,137.526 88.579,137.937 87.538 C 138.338 86.520,138.670 85.221,138.675 84.653 C 138.680 84.084,138.995 82.932,139.377 82.093 C 139.758 81.254,140.286 79.668,140.549 78.568 C 140.813 77.469,141.178 76.477,141.361 76.364 C 141.544 76.251,141.886 75.437,142.120 74.555 C 142.355 73.674,142.767 72.695,143.035 72.381 C 143.303 72.067,143.725 71.180,143.971 70.411 C 144.218 69.642,144.668 68.807,144.972 68.555 C 145.275 68.303,145.524 67.913,145.524 67.688 C 145.524 67.463,145.923 66.670,146.410 65.925 C 146.898 65.181,147.789 63.800,148.391 62.857 C 152.633 56.209,161.298 48.455,168.381 44.966 C 174.292 42.055,176.976 41.038,180.952 40.203 C 182.314 39.917,183.943 39.477,184.571 39.225 C 187.628 37.997,210.310 37.902,214.686 39.098 " stroke="none" fill="#503420" fill-rule="evenodd"></path><path id="path1" d="M188.571 39.230 C 187.629 39.378,186.417 39.682,185.880 39.904 C 185.343 40.127,183.885 40.429,182.642 40.577 C 181.398 40.724,179.689 41.143,178.844 41.507 C 177.999 41.872,176.637 42.296,175.817 42.450 C 174.997 42.603,173.908 43.058,173.397 43.460 C 172.887 43.862,172.267 44.190,172.021 44.190 C 171.639 44.190,168.851 45.539,165.007 47.583 C 164.453 47.877,163.942 48.267,163.870 48.448 C 163.799 48.630,163.199 49.054,162.537 49.391 C 161.315 50.013,161.153 50.139,158.939 52.180 C 158.251 52.814,157.522 53.333,157.320 53.333 C 157.118 53.333,156.952 53.594,156.952 53.913 C 156.952 54.232,156.524 54.688,156.000 54.926 C 155.476 55.165,155.048 55.578,155.048 55.845 C 155.048 56.112,154.705 56.438,154.286 56.571 C 153.867 56.704,153.524 56.973,153.524 57.169 C 153.524 57.364,153.138 57.903,152.667 58.367 C 152.195 58.830,151.552 59.584,151.238 60.043 C 150.050 61.775,147.915 64.996,147.226 66.095 C 145.967 68.106,142.476 75.207,142.476 75.759 C 142.476 76.051,142.155 76.826,141.763 77.479 C 141.370 78.132,140.933 79.438,140.791 80.381 C 140.649 81.324,140.290 82.466,139.993 82.920 C 139.696 83.373,139.277 84.852,139.060 86.206 C 138.844 87.560,138.418 89.263,138.114 89.991 C 137.391 91.721,136.872 99.978,137.463 100.344 C 137.898 100.612,139.438 99.971,139.843 99.354 C 140.085 98.984,141.868 97.945,144.000 96.930 C 144.733 96.581,145.419 96.168,145.524 96.011 C 145.629 95.855,147.086 95.090,148.762 94.310 C 150.438 93.531,152.410 92.583,153.143 92.203 C 153.876 91.822,155.021 91.396,155.688 91.255 C 156.354 91.114,157.093 90.766,157.329 90.481 C 157.565 90.197,158.477 89.845,159.355 89.698 C 160.234 89.552,161.580 89.115,162.346 88.726 C 163.112 88.338,164.484 87.906,165.394 87.767 C 166.303 87.627,167.532 87.269,168.124 86.970 C 168.716 86.671,170.430 86.186,171.933 85.891 C 173.437 85.597,175.867 85.110,177.333 84.809 C 178.800 84.507,181.714 84.066,183.810 83.827 C 185.905 83.589,189.076 83.215,190.857 82.996 C 194.593 82.538,210.610 82.836,213.524 83.418 C 214.571 83.627,217.057 83.975,219.048 84.191 C 221.038 84.407,223.438 84.828,224.381 85.126 C 225.324 85.423,227.152 85.837,228.444 86.045 C 229.736 86.253,231.279 86.672,231.873 86.976 C 232.467 87.280,233.724 87.655,234.667 87.810 C 235.610 87.965,236.981 88.393,237.714 88.762 C 238.448 89.131,239.766 89.552,240.645 89.698 C 241.523 89.845,242.435 90.197,242.671 90.481 C 242.907 90.766,243.646 91.114,244.312 91.255 C 244.979 91.396,246.124 91.822,246.857 92.203 C 247.590 92.583,249.555 93.531,251.223 94.309 C 252.891 95.088,254.489 95.958,254.774 96.243 C 255.059 96.529,255.470 96.762,255.687 96.762 C 255.903 96.762,256.590 97.190,257.212 97.714 C 257.835 98.238,258.567 98.667,258.840 98.667 C 259.112 98.667,259.546 98.920,259.803 99.230 C 260.821 100.456,262.423 100.958,262.685 100.133 C 263.062 98.945,262.471 92.977,261.729 90.476 C 261.356 89.219,260.932 87.221,260.788 86.035 C 260.644 84.850,260.193 83.228,259.787 82.431 C 259.380 81.634,259.048 80.567,259.048 80.060 C 259.048 79.552,258.723 78.603,258.327 77.950 C 257.930 77.296,257.479 76.162,257.325 75.429 C 257.170 74.695,256.723 73.686,256.331 73.187 C 255.940 72.687,255.619 71.982,255.619 71.619 C 255.619 71.257,255.270 70.516,254.844 69.974 C 254.417 69.432,253.886 68.466,253.663 67.827 C 253.441 67.189,253.125 66.667,252.961 66.667 C 252.798 66.667,252.441 66.110,252.170 65.429 C 251.898 64.748,251.444 63.933,251.162 63.619 C 250.080 62.414,248.381 60.072,248.381 59.786 C 248.381 59.622,247.181 58.273,245.714 56.788 C 244.248 55.304,243.048 53.920,243.048 53.712 C 243.048 53.504,242.891 53.333,242.699 53.333 C 242.507 53.333,241.950 52.995,241.461 52.582 C 240.972 52.169,239.800 51.229,238.857 50.493 C 237.914 49.757,236.800 48.888,236.381 48.560 C 234.783 47.312,225.813 42.830,224.190 42.469 C 223.562 42.329,222.190 41.906,221.143 41.528 C 219.364 40.888,215.706 40.047,211.238 39.252 C 208.999 38.853,191.066 38.836,188.571 39.230 M206.286 42.373 C 206.914 42.731,208.071 43.277,208.857 43.588 C 209.643 43.898,210.286 44.332,210.286 44.552 C 210.286 44.772,210.531 44.952,210.832 44.952 C 212.341 44.952,216.451 50.105,218.091 54.052 C 219.562 57.595,219.577 65.235,218.116 67.048 C 217.863 67.362,217.453 68.330,217.205 69.199 C 216.958 70.067,216.499 70.876,216.187 70.996 C 215.875 71.116,215.619 71.451,215.619 71.740 C 215.619 72.177,213.967 73.850,210.254 77.174 C 209.922 77.471,209.510 77.714,209.338 77.714 C 209.166 77.714,208.066 78.169,206.894 78.724 C 203.709 80.233,196.291 80.233,193.106 78.724 C 191.934 78.169,190.834 77.714,190.662 77.714 C 190.490 77.714,190.078 77.471,189.746 77.174 C 186.033 73.850,184.381 72.177,184.381 71.740 C 184.381 71.451,184.125 71.116,183.813 70.996 C 183.501 70.876,183.042 70.067,182.795 69.199 C 182.547 68.330,182.137 67.362,181.884 67.048 C 180.423 65.235,180.438 57.595,181.909 54.052 C 183.549 50.105,187.659 44.952,189.168 44.952 C 189.469 44.952,189.714 44.772,189.714 44.552 C 189.714 44.332,190.357 43.899,191.143 43.590 C 191.929 43.281,192.909 42.836,193.321 42.602 C 194.871 41.720,196.123 41.554,200.571 41.637 C 204.064 41.702,205.413 41.876,206.286 42.373 M197.537 48.888 C 197.440 49.343,197.312 51.196,197.252 53.008 C 197.102 57.538,196.749 57.905,192.537 57.905 C 187.895 57.905,187.429 58.164,187.429 60.745 C 187.429 63.205,187.323 63.151,192.463 63.320 C 196.926 63.466,197.074 63.629,197.328 68.675 C 197.565 73.396,197.637 73.524,200.032 73.524 C 202.381 73.524,202.667 72.969,202.667 68.398 C 202.667 63.873,203.056 63.463,207.490 63.320 C 212.716 63.151,212.571 63.228,212.571 60.609 C 212.571 57.942,212.526 57.918,207.524 57.910 C 202.966 57.903,202.667 57.596,202.667 52.927 C 202.667 48.416,202.485 48.105,199.822 48.082 C 197.959 48.065,197.693 48.159,197.537 48.888 M129.724 266.565 C 129.310 266.670,128.796 266.974,128.581 267.241 C 128.366 267.507,127.505 267.938,126.667 268.198 C 125.829 268.458,124.971 268.802,124.762 268.963 C 124.552 269.123,123.610 269.479,122.667 269.753 C 121.724 270.026,120.438 270.558,119.810 270.933 C 119.181 271.309,118.407 271.617,118.090 271.618 C 117.772 271.618,116.898 271.948,116.147 272.351 C 115.397 272.753,114.028 273.283,113.105 273.529 C 112.183 273.775,111.171 274.194,110.857 274.460 C 110.543 274.727,109.771 275.067,109.143 275.217 C 108.514 275.366,107.743 275.703,107.429 275.967 C 107.114 276.230,106.257 276.674,105.524 276.952 C 104.790 277.231,103.933 277.666,103.619 277.919 C 103.305 278.173,102.405 278.586,101.619 278.839 C 100.833 279.091,100.190 279.453,100.190 279.643 C 100.190 279.834,99.633 280.248,98.952 280.564 C 91.562 283.992,83.048 293.564,81.911 299.725 C 81.707 300.830,81.364 302.062,81.150 302.462 C 80.936 302.862,80.575 304.527,80.348 306.162 C 80.120 307.797,79.712 309.666,79.440 310.316 C 79.169 310.966,78.828 312.768,78.683 314.320 C 78.538 315.873,78.103 318.514,77.717 320.190 C 77.331 321.867,76.898 324.524,76.754 326.095 C 76.611 327.667,76.262 329.810,75.977 330.857 C 75.693 331.905,75.357 333.876,75.232 335.238 C 75.106 336.600,74.931 338.073,74.843 338.511 C 74.713 339.154,75.401 339.827,78.389 341.988 C 150.606 394.196,249.400 394.193,321.623 341.979 C 325.134 339.441,325.332 339.225,325.164 338.121 C 325.066 337.478,324.886 336.095,324.764 335.048 C 324.643 334.000,324.296 331.943,323.994 330.476 C 323.693 329.010,323.185 326.010,322.866 323.810 C 322.140 318.798,321.610 315.646,320.877 312.000 C 320.562 310.429,320.141 308.200,319.941 307.048 C 318.255 297.288,316.164 293.010,310.504 287.735 C 307.232 284.686,306.916 284.408,306.248 284.000 C 305.905 283.790,305.130 283.292,304.527 282.891 C 303.923 282.491,302.743 281.736,301.905 281.213 C 301.067 280.690,299.927 279.953,299.372 279.576 C 298.816 279.199,297.915 278.779,297.368 278.641 C 296.821 278.504,296.282 278.244,296.170 278.062 C 296.058 277.881,294.646 277.121,293.031 276.372 C 291.416 275.624,289.495 274.698,288.762 274.314 C 288.029 273.931,286.803 273.506,286.038 273.370 C 285.274 273.234,284.447 272.881,284.202 272.586 C 283.957 272.291,283.212 271.936,282.545 271.797 C 281.879 271.659,280.766 271.219,280.073 270.820 C 279.381 270.421,278.592 270.095,278.321 270.095 C 278.050 270.095,277.022 269.667,276.037 269.143 C 275.051 268.619,273.935 268.190,273.555 268.190 C 273.175 268.190,272.456 267.874,271.956 267.487 C 269.782 265.802,267.631 266.038,267.263 268.002 C 267.128 268.722,266.709 269.531,266.332 269.799 C 265.955 270.067,265.520 270.800,265.364 271.429 C 265.208 272.057,264.752 272.878,264.350 273.253 C 263.948 273.628,263.619 274.248,263.619 274.630 C 263.619 275.013,263.287 275.748,262.881 276.264 C 262.475 276.781,262.024 277.704,261.878 278.316 C 261.733 278.928,261.324 279.771,260.969 280.190 C 260.026 281.305,258.286 285.461,258.286 286.601 C 258.286 287.701,257.555 289.524,257.114 289.524 C 256.956 289.524,256.708 290.852,256.564 292.476 C 256.419 294.100,255.976 296.179,255.579 297.096 C 254.154 300.388,255.206 310.626,257.110 312.000 C 257.255 312.105,257.749 312.808,258.207 313.563 C 258.665 314.318,259.471 315.259,259.996 315.653 C 262.933 317.858,259.007 318.919,255.287 316.925 C 254.533 316.521,253.594 316.190,253.200 316.190 C 252.807 316.190,251.861 315.854,251.099 315.443 C 250.338 315.032,248.288 314.158,246.545 313.500 C 244.802 312.843,243.283 312.065,243.171 311.772 C 243.058 311.478,242.655 311.238,242.274 311.238 C 241.894 311.238,241.073 310.810,240.450 310.286 C 239.828 309.762,239.139 309.333,238.919 309.333 C 238.699 309.333,238.295 309.030,238.022 308.660 C 237.748 308.290,237.047 307.683,236.465 307.311 C 235.053 306.409,228.571 299.808,228.571 299.272 C 228.571 299.040,228.229 298.636,227.810 298.374 C 227.390 298.112,227.048 297.566,227.048 297.159 C 227.048 296.753,226.619 295.958,226.095 295.393 C 225.571 294.827,225.143 293.972,225.143 293.491 C 225.143 290.868,222.743 294.267,222.250 297.588 C 222.116 298.495,221.782 299.596,221.510 300.034 C 221.238 300.472,220.818 301.929,220.577 303.272 C 220.337 304.615,219.992 305.992,219.811 306.332 C 219.612 306.708,219.645 307.112,219.897 307.364 C 220.190 307.656,220.192 307.921,219.905 308.270 C 219.682 308.540,219.378 309.578,219.230 310.576 C 219.081 311.574,218.637 312.801,218.242 313.303 C 217.813 313.848,217.524 314.823,217.524 315.723 C 217.524 316.672,217.231 317.603,216.733 318.236 C 216.271 318.824,215.805 320.209,215.613 321.565 C 215.433 322.843,215.032 324.171,214.724 324.516 C 214.415 324.861,214.042 326.000,213.893 327.048 C 213.745 328.095,213.323 329.295,212.955 329.714 C 212.537 330.191,212.210 331.373,212.083 332.871 C 211.971 334.188,211.602 335.689,211.263 336.206 C 210.924 336.724,210.478 338.035,210.272 339.119 C 210.067 340.203,209.666 341.359,209.381 341.688 C 209.097 342.017,208.754 343.143,208.620 344.190 C 208.485 345.238,208.059 346.525,207.673 347.050 C 207.288 347.575,206.887 348.885,206.784 349.961 C 206.669 351.158,206.277 352.324,205.774 352.963 C 205.307 353.556,204.952 354.554,204.952 355.272 C 204.952 356.578,204.271 358.476,203.801 358.476 C 203.654 358.476,203.441 359.511,203.326 360.775 C 203.100 363.263,201.018 367.429,200.000 367.429 C 198.982 367.429,196.900 363.263,196.674 360.775 C 196.559 359.511,196.346 358.476,196.199 358.476 C 195.729 358.476,195.048 356.578,195.048 355.272 C 195.048 354.554,194.693 353.556,194.226 352.963 C 193.717 352.315,193.337 351.173,193.227 349.959 C 193.129 348.882,192.807 347.723,192.511 347.383 C 192.215 347.044,191.763 345.741,191.507 344.486 C 191.252 343.232,190.830 341.950,190.570 341.637 C 190.310 341.323,189.930 340.185,189.726 339.107 C 189.521 338.029,189.076 336.724,188.737 336.206 C 188.398 335.689,188.029 334.188,187.917 332.871 C 187.790 331.373,187.463 330.191,187.045 329.714 C 186.677 329.295,186.255 328.095,186.107 327.048 C 185.958 326.000,185.585 324.861,185.276 324.516 C 184.968 324.171,184.565 322.824,184.381 321.524 C 184.197 320.223,183.780 318.864,183.454 318.504 C 183.128 318.144,182.748 317.004,182.611 315.972 C 182.473 314.940,182.063 313.712,181.700 313.243 C 181.337 312.774,180.919 311.574,180.770 310.576 C 180.622 309.578,180.308 308.529,180.074 308.244 C 179.749 307.850,179.815 307.605,180.353 307.211 C 181.039 306.710,181.039 306.665,180.358 305.633 C 179.972 305.049,179.531 303.800,179.377 302.857 C 178.473 297.298,174.857 290.113,174.857 293.876 C 174.857 294.383,174.429 295.308,173.905 295.931 C 173.381 296.553,172.952 297.250,172.952 297.480 C 172.952 297.710,172.610 298.112,172.190 298.374 C 171.771 298.636,171.429 299.040,171.429 299.273 C 171.429 300.197,164.212 307.429,163.290 307.429 C 163.096 307.429,162.576 307.778,162.135 308.206 C 160.278 310.005,159.084 310.857,158.421 310.857 C 158.032 310.857,157.360 311.212,156.926 311.645 C 156.493 312.078,155.422 312.666,154.545 312.951 C 151.865 313.822,149.597 314.677,148.000 315.417 C 147.162 315.806,145.876 316.247,145.143 316.396 C 144.410 316.546,143.471 316.904,143.058 317.192 C 141.077 318.570,139.099 317.200,140.630 315.510 C 142.164 313.818,143.619 311.705,143.620 311.168 C 143.621 310.892,143.988 310.067,144.435 309.333 C 145.553 307.501,145.544 298.200,144.423 295.327 C 144.036 294.335,143.595 292.495,143.443 291.238 C 143.292 289.981,142.916 288.670,142.608 288.325 C 142.300 287.980,141.898 286.630,141.713 285.326 C 141.499 283.812,141.094 282.652,140.594 282.119 C 140.162 281.660,139.810 281.065,139.810 280.797 C 139.810 280.530,139.486 279.899,139.091 279.397 C 138.695 278.894,138.252 277.844,138.106 277.064 C 137.959 276.283,137.531 275.429,137.154 275.165 C 136.777 274.901,136.358 274.248,136.224 273.713 C 136.090 273.179,135.642 272.404,135.228 271.990 C 134.815 271.577,134.476 270.929,134.476 270.550 C 134.476 270.172,134.048 269.281,133.524 268.571 C 133.000 267.861,132.571 267.057,132.571 266.783 C 132.571 266.285,131.232 266.182,129.724 266.565 " stroke="none" fill="#e4e4e5" fill-rule="evenodd"></path><path id="path2" d="M198.762 38.752 C 199.443 38.836,200.557 38.836,201.238 38.752 C 201.919 38.667,201.362 38.598,200.000 38.598 C 198.638 38.598,198.081 38.667,198.762 38.752 M195.036 41.863 C 194.505 42.035,193.734 42.367,193.321 42.602 C 192.909 42.836,191.929 43.281,191.143 43.590 C 190.357 43.899,189.714 44.332,189.714 44.552 C 189.714 44.772,189.469 44.952,189.168 44.952 C 187.659 44.952,183.549 50.105,181.909 54.052 C 180.438 57.595,180.423 65.235,181.884 67.048 C 182.137 67.362,182.547 68.330,182.795 69.199 C 183.042 70.067,183.501 70.876,183.813 70.996 C 184.125 71.116,184.381 71.451,184.381 71.740 C 184.381 72.177,186.033 73.850,189.746 77.174 C 190.078 77.471,190.490 77.714,190.662 77.714 C 190.834 77.714,191.934 78.169,193.106 78.724 C 196.291 80.233,203.709 80.233,206.894 78.724 C 208.066 78.169,209.166 77.714,209.338 77.714 C 209.510 77.714,209.922 77.471,210.254 77.174 C 213.967 73.850,215.619 72.177,215.619 71.740 C 215.619 71.451,215.875 71.116,216.187 70.996 C 216.499 70.876,216.958 70.067,217.205 69.199 C 217.453 68.330,217.863 67.362,218.116 67.048 C 219.577 65.235,219.562 57.595,218.091 54.052 C 216.451 50.105,212.341 44.952,210.832 44.952 C 210.531 44.952,210.286 44.772,210.286 44.552 C 210.286 44.332,209.643 43.898,208.857 43.588 C 208.071 43.277,206.914 42.731,206.286 42.373 C 205.017 41.651,196.838 41.280,195.036 41.863 M205.143 42.852 C 209.222 44.586,211.035 45.669,213.048 47.570 C 214.252 48.708,215.238 49.850,215.238 50.107 C 215.238 50.363,215.474 50.769,215.763 51.009 C 216.052 51.249,216.776 52.770,217.373 54.389 C 221.764 66.306,212.721 79.241,200.000 79.241 C 191.850 79.241,185.790 74.701,182.216 65.917 C 180.720 62.240,181.990 52.874,184.237 51.009 C 184.526 50.769,184.762 50.374,184.762 50.131 C 184.762 48.214,191.535 43.774,196.762 42.264 C 198.475 41.769,203.412 42.115,205.143 42.852 M196.667 47.871 C 196.332 48.007,196.190 49.161,196.190 51.768 C 196.190 56.744,196.161 56.776,191.535 56.874 C 187.147 56.967,186.964 57.099,186.824 60.268 C 186.657 64.040,187.035 64.381,191.378 64.381 C 196.061 64.381,196.190 64.517,196.190 69.445 C 196.190 73.779,196.301 73.905,200.119 73.905 C 203.342 73.905,203.583 73.591,203.751 69.180 C 203.928 64.514,204.063 64.381,208.622 64.381 C 213.002 64.381,213.529 63.909,213.262 60.220 C 213.022 56.913,212.746 56.714,208.512 56.792 C 203.918 56.878,203.934 56.893,203.744 52.157 C 203.631 49.347,203.443 48.242,203.033 47.983 C 202.457 47.619,197.508 47.532,196.667 47.871 M202.299 48.787 C 202.501 49.165,202.667 51.028,202.667 52.927 C 202.667 57.596,202.966 57.903,207.524 57.910 C 212.526 57.918,212.571 57.942,212.571 60.609 C 212.571 63.228,212.716 63.151,207.490 63.320 C 203.056 63.463,202.667 63.873,202.667 68.398 C 202.667 72.969,202.381 73.524,200.032 73.524 C 197.637 73.524,197.565 73.396,197.328 68.675 C 197.074 63.629,196.926 63.466,192.463 63.320 C 187.323 63.151,187.429 63.205,187.429 60.745 C 187.429 58.164,187.895 57.905,192.537 57.905 C 196.749 57.905,197.102 57.538,197.252 53.008 C 197.420 47.931,197.353 48.059,199.822 48.082 C 201.452 48.096,202.015 48.257,202.299 48.787 M187.905 96.917 C 183.452 101.401,179.810 105.177,179.810 105.307 C 179.810 105.437,179.038 106.315,178.095 107.258 C 177.152 108.201,176.381 109.128,176.381 109.318 C 176.381 109.508,176.047 109.769,175.639 109.899 C 175.230 110.028,174.797 110.447,174.675 110.830 C 174.472 111.472,171.670 114.959,169.899 116.775 C 169.483 117.202,169.143 117.696,169.143 117.874 C 169.143 118.053,168.757 118.600,168.286 119.090 C 166.884 120.547,166.177 121.421,165.746 122.227 C 165.522 122.646,165.121 123.216,164.855 123.494 C 164.589 123.772,164.030 124.496,163.614 125.101 C 163.198 125.707,162.514 126.670,162.095 127.242 C 158.587 132.027,152.720 141.483,151.403 144.476 C 151.057 145.262,150.635 145.905,150.465 145.905 C 150.295 145.905,150.045 146.411,149.909 147.030 C 149.773 147.648,149.347 148.554,148.963 149.043 C 148.578 149.532,148.073 150.611,147.840 151.442 C 147.607 152.273,147.162 153.285,146.851 153.692 C 146.540 154.099,146.286 154.716,146.286 155.064 C 146.286 155.411,145.884 156.452,145.393 157.375 C 144.902 158.298,144.375 159.720,144.222 160.535 C 144.070 161.350,143.716 162.377,143.436 162.818 C 143.156 163.258,142.721 164.648,142.468 165.905 C 142.216 167.162,141.827 168.533,141.602 168.952 C 141.064 169.959,140.192 176.319,140.486 177.102 C 140.612 177.439,141.197 178.169,141.786 178.724 C 142.375 179.280,142.863 180.051,142.869 180.439 C 142.876 180.826,143.121 181.459,143.413 181.845 C 143.706 182.231,144.063 183.245,144.207 184.098 C 144.351 184.951,144.878 186.418,145.377 187.358 C 145.877 188.297,146.286 189.288,146.286 189.560 C 146.286 189.832,146.688 190.812,147.180 191.737 C 147.672 192.661,148.181 193.742,148.312 194.138 C 148.442 194.533,148.726 195.114,148.942 195.429 C 149.157 195.743,149.517 196.429,149.741 196.952 C 149.965 197.476,150.650 198.762,151.263 199.810 C 151.876 200.857,152.730 202.443,153.159 203.333 C 153.589 204.224,154.076 204.952,154.242 204.952 C 154.408 204.952,154.749 205.401,154.999 205.950 C 155.249 206.498,156.219 207.942,157.155 209.159 C 158.091 210.375,158.857 211.442,158.857 211.529 C 158.857 211.905,162.047 215.383,166.363 219.713 C 170.175 223.537,171.059 224.635,171.271 225.808 C 171.414 226.594,171.780 227.730,172.084 228.331 C 172.393 228.941,172.783 231.385,172.965 233.855 C 173.144 236.292,173.485 239.293,173.722 240.524 C 174.071 242.345,174.030 243.590,173.500 247.191 C 172.659 252.910,172.698 255.088,173.667 256.399 C 174.082 256.960,174.547 258.083,174.698 258.893 C 174.850 259.703,175.291 260.883,175.676 261.516 C 176.062 262.149,176.379 263.235,176.380 263.929 C 176.380 264.624,176.767 266.081,177.238 267.167 C 178.407 269.861,178.561 284.847,177.437 286.562 C 177.076 287.114,176.667 288.267,176.530 289.124 C 176.393 289.982,176.132 290.776,175.950 290.888 C 175.392 291.233,175.577 292.282,176.549 294.280 C 177.713 296.674,179.012 300.613,179.377 302.857 C 179.693 304.800,180.774 306.667,181.583 306.667 C 181.881 306.667,182.798 307.010,183.619 307.429 C 184.440 307.848,185.639 308.190,186.283 308.190 C 186.926 308.190,188.519 308.574,189.822 309.043 C 193.388 310.327,206.612 310.327,210.178 309.043 C 211.481 308.574,213.074 308.190,213.717 308.190 C 214.361 308.190,215.576 307.839,216.418 307.410 C 217.259 306.980,218.257 306.727,218.635 306.847 C 219.608 307.156,219.997 306.462,220.524 303.485 C 220.778 302.050,221.215 300.507,221.495 300.057 C 221.776 299.606,222.116 298.495,222.250 297.588 C 222.385 296.680,222.920 295.100,223.438 294.076 C 224.407 292.165,224.631 290.866,224.053 290.509 C 223.873 290.398,223.625 289.573,223.501 288.677 C 223.378 287.781,222.969 286.448,222.593 285.714 C 221.619 283.815,221.589 271.329,222.555 269.424 C 222.901 268.740,223.298 267.197,223.438 265.995 C 223.577 264.793,223.988 263.124,224.352 262.286 C 227.396 255.264,227.604 254.443,227.104 251.431 C 225.971 244.619,225.845 242.995,226.249 240.456 C 226.472 239.053,226.834 235.854,227.054 233.347 C 227.274 230.840,227.692 228.313,227.982 227.731 C 228.272 227.150,228.627 226.137,228.771 225.480 C 228.956 224.642,230.413 222.904,233.660 219.653 C 237.654 215.653,241.143 211.896,241.143 211.596 C 241.143 211.546,241.835 210.502,242.681 209.277 C 243.527 208.051,244.509 206.619,244.863 206.095 C 245.217 205.571,245.616 205.057,245.750 204.952 C 245.883 204.848,246.402 204.005,246.901 203.079 C 247.401 202.154,248.269 200.611,248.831 199.651 C 249.392 198.690,250.035 197.476,250.259 196.952 C 250.483 196.429,250.843 195.743,251.058 195.429 C 251.274 195.114,251.558 194.533,251.688 194.138 C 251.819 193.742,252.309 192.699,252.776 191.819 C 253.244 190.940,253.755 189.635,253.912 188.920 C 254.068 188.204,254.517 187.022,254.908 186.291 C 255.299 185.561,255.619 184.654,255.619 184.276 C 255.619 183.898,255.938 182.953,256.327 182.175 C 256.716 181.398,257.144 180.308,257.277 179.752 C 257.435 179.093,257.904 178.609,258.628 178.356 C 259.984 177.883,260.349 176.877,259.855 174.971 C 259.648 174.175,259.359 172.506,259.211 171.263 C 259.063 170.019,258.640 168.305,258.271 167.453 C 257.902 166.601,257.483 165.186,257.341 164.308 C 257.200 163.430,256.754 162.065,256.351 161.275 C 255.949 160.485,255.614 159.575,255.607 159.253 C 255.601 158.930,255.174 157.810,254.658 156.762 C 254.143 155.714,253.720 154.578,253.718 154.237 C 253.716 153.896,253.466 153.411,253.162 153.159 C 252.859 152.907,252.409 152.072,252.162 151.303 C 251.915 150.534,251.494 149.648,251.225 149.333 C 250.957 149.019,250.544 148.033,250.306 147.143 C 250.069 146.252,249.729 145.524,249.550 145.524 C 249.372 145.524,248.964 144.871,248.645 144.074 C 248.326 143.276,247.793 142.398,247.461 142.122 C 247.129 141.847,246.857 141.437,246.857 141.212 C 246.857 140.987,246.453 140.194,245.959 139.449 C 245.465 138.704,244.193 136.724,243.133 135.048 C 242.073 133.371,240.935 131.657,240.605 131.238 C 240.275 130.819,239.066 129.190,237.918 127.619 C 235.419 124.197,234.668 123.214,233.882 122.334 C 233.555 121.968,233.040 121.317,232.739 120.887 C 231.166 118.649,222.304 109.076,218.898 105.938 C 218.082 105.186,216.156 103.371,214.618 101.905 C 213.080 100.438,211.278 98.810,210.614 98.286 C 208.793 96.849,206.714 95.098,206.286 94.640 C 205.933 94.263,204.564 93.296,203.089 92.382 C 202.752 92.173,201.930 91.616,201.264 91.144 C 200.597 90.672,199.825 90.282,199.549 90.277 C 199.273 90.273,198.619 89.934,198.095 89.524 C 196.526 88.296,196.306 88.455,187.905 96.917 M262.565 95.238 C 262.565 95.971,262.643 96.271,262.739 95.905 C 262.835 95.538,262.835 94.938,262.739 94.571 C 262.643 94.205,262.565 94.505,262.565 95.238 M6.600 140.961 C 6.354 141.895,6.220 142.728,6.303 142.811 C 6.578 143.086,7.275 140.828,7.160 140.037 C 7.089 139.547,6.883 139.886,6.600 140.961 M392.787 140.070 C 392.759 140.997,393.453 143.055,393.708 142.800 C 393.798 142.710,393.633 141.872,393.342 140.937 C 393.031 139.939,392.802 139.582,392.787 140.070 M4.827 147.865 C 4.173 150.592,4.191 151.534,4.874 150.223 C 5.243 149.513,5.889 145.143,5.625 145.143 C 5.546 145.143,5.187 146.368,4.827 147.865 M394.538 147.238 C 394.662 148.495,394.941 149.866,395.159 150.285 C 395.862 151.632,395.811 150.359,395.053 147.619 L 394.315 144.952 394.538 147.238 M3.429 153.538 C 3.429 153.755,3.013 156.369,2.504 159.347 C 0.922 168.622,-0.095 179.429,0.615 179.429 C 1.220 179.429,1.458 177.542,1.914 169.152 C 2.185 164.157,2.501 161.375,2.903 160.432 C 3.501 159.029,4.124 153.143,3.673 153.143 C 3.539 153.143,3.429 153.320,3.429 153.538 M396.221 155.343 C 396.202 156.834,396.479 158.553,396.958 159.914 C 397.563 161.633,397.805 163.751,398.098 169.905 C 398.495 178.228,398.639 179.263,399.446 179.573 C 400.016 179.792,400.030 180.099,399.020 170.476 C 398.485 165.388,396.797 154.334,396.401 153.333 C 396.318 153.124,396.237 154.028,396.221 155.343 M198.182 199.579 L 199.983 200.409 201.992 199.538 C 204.575 198.417,210.891 198.262,212.055 199.291 C 212.444 199.634,213.362 200.038,214.095 200.189 C 214.829 200.340,215.963 200.788,216.616 201.184 C 217.270 201.580,218.234 201.905,218.760 201.905 C 219.957 201.905,220.710 202.772,220.390 203.781 C 220.156 204.519,219.391 205.234,217.508 206.476 C 217.031 206.790,216.089 207.519,215.413 208.095 C 214.738 208.671,214.027 209.143,213.833 209.143 C 213.640 209.143,212.913 209.562,212.218 210.075 C 211.522 210.588,210.472 211.113,209.884 211.243 C 209.296 211.372,208.617 211.715,208.376 212.006 C 208.135 212.296,207.137 212.649,206.159 212.790 C 205.181 212.931,203.803 213.282,203.096 213.571 C 201.583 214.189,198.356 214.262,197.310 213.702 C 196.905 213.485,195.588 213.127,194.382 212.906 C 193.177 212.685,191.933 212.284,191.619 212.015 C 191.305 211.745,190.418 211.323,189.650 211.076 C 188.881 210.830,188.045 210.379,187.793 210.076 C 187.541 209.772,187.123 209.524,186.863 209.524 C 186.603 209.524,185.724 209.015,184.910 208.394 C 184.095 207.773,183.086 207.004,182.667 206.686 C 182.248 206.368,181.432 205.749,180.855 205.310 C 178.617 203.610,178.685 202.225,181.031 201.756 C 181.694 201.623,182.525 201.253,182.879 200.933 C 183.233 200.612,184.358 200.209,185.380 200.036 C 186.402 199.864,187.752 199.433,188.381 199.079 C 190.035 198.147,195.701 198.436,198.182 199.579 M0.296 203.333 C 0.672 209.489,2.976 226.262,3.632 227.619 C 4.114 228.617,3.393 221.723,2.889 220.517 C 2.506 219.599,2.179 216.679,1.914 211.800 C 1.695 207.766,1.410 203.803,1.281 202.994 C 0.937 200.848,0.160 201.115,0.296 203.333 M398.719 202.994 C 398.590 203.803,398.305 207.766,398.086 211.800 C 397.821 216.679,397.494 219.599,397.111 220.517 C 396.607 221.723,395.886 228.617,396.368 227.619 C 397.024 226.262,399.328 209.489,399.704 203.333 C 399.840 201.115,399.063 200.848,398.719 202.994 M4.211 230.286 C 4.209 230.495,4.546 231.867,4.959 233.333 C 5.462 235.115,5.650 235.494,5.526 234.476 C 5.425 233.638,5.340 232.599,5.338 232.168 C 5.335 231.737,5.082 231.051,4.774 230.644 C 4.466 230.238,4.213 230.076,4.211 230.286 M395.159 230.668 C 394.941 231.086,394.662 232.457,394.538 233.714 L 394.315 236.000 395.053 233.333 C 395.811 230.593,395.862 229.320,395.159 230.668 M6.452 239.429 C 7.104 241.585,7.178 241.713,7.208 240.739 C 7.225 240.203,6.983 239.432,6.672 239.025 C 6.146 238.339,6.130 238.367,6.452 239.429 M393.132 239.258 C 392.902 239.688,392.768 240.411,392.833 240.865 C 392.918 241.452,393.074 241.227,393.376 240.083 C 393.842 238.313,393.769 238.068,393.132 239.258 M129.264 265.890 C 128.598 266.049,127.778 266.453,127.443 266.789 C 127.107 267.124,126.195 267.516,125.416 267.659 C 124.637 267.803,123.591 268.238,123.091 268.627 C 122.592 269.015,121.819 269.333,121.374 269.333 C 120.929 269.333,119.760 269.762,118.776 270.286 C 117.792 270.810,116.669 271.238,116.281 271.238 C 115.892 271.238,115.241 271.492,114.835 271.803 C 114.428 272.114,113.416 272.559,112.585 272.792 C 111.754 273.026,110.660 273.543,110.153 273.941 C 109.645 274.340,108.848 274.667,108.381 274.667 C 107.914 274.667,107.122 274.985,106.623 275.373 C 106.123 275.762,105.071 276.289,104.286 276.546 C 103.500 276.802,102.857 277.163,102.857 277.348 C 102.857 277.533,102.214 277.858,101.427 278.070 C 100.640 278.282,99.699 278.803,99.336 279.228 C 98.972 279.652,98.431 280.000,98.134 280.000 C 97.837 280.000,96.647 280.771,95.489 281.714 C 94.332 282.657,93.251 283.429,93.087 283.429 C 92.728 283.429,92.103 283.989,88.371 287.658 C 85.564 290.419,84.855 291.289,83.162 294.058 C 81.979 295.994,81.524 297.076,81.524 297.950 C 81.524 298.367,81.198 299.428,80.799 300.307 C 80.401 301.186,79.952 303.105,79.802 304.571 C 79.652 306.038,79.229 307.924,78.862 308.762 C 78.495 309.600,78.081 311.719,77.942 313.472 C 77.803 315.224,77.442 317.135,77.141 317.718 C 76.839 318.302,76.481 320.468,76.345 322.532 C 76.209 324.597,75.791 327.229,75.416 328.381 C 74.644 330.752,73.949 339.301,74.558 338.924 C 74.766 338.796,75.049 337.338,75.187 335.685 C 75.325 334.033,75.676 331.841,75.967 330.816 C 76.259 329.791,76.614 327.667,76.756 326.095 C 76.898 324.524,77.331 321.867,77.717 320.190 C 78.103 318.514,78.538 315.873,78.683 314.320 C 78.828 312.768,79.169 310.966,79.440 310.316 C 79.712 309.666,80.120 307.797,80.348 306.162 C 80.575 304.527,80.936 302.862,81.150 302.462 C 81.364 302.062,81.707 300.830,81.911 299.725 C 83.048 293.564,91.562 283.992,98.952 280.564 C 99.633 280.248,100.190 279.834,100.190 279.643 C 100.190 279.453,100.833 279.091,101.619 278.839 C 102.405 278.586,103.305 278.173,103.619 277.919 C 103.933 277.666,104.790 277.231,105.524 276.952 C 106.257 276.674,107.114 276.230,107.429 275.967 C 107.743 275.703,108.514 275.366,109.143 275.217 C 109.771 275.067,110.543 274.727,110.857 274.460 C 111.171 274.194,112.183 273.775,113.105 273.529 C 114.028 273.283,115.397 272.753,116.147 272.351 C 116.898 271.948,117.772 271.618,118.090 271.618 C 118.407 271.617,119.181 271.303,119.810 270.920 C 120.438 270.537,121.461 270.097,122.082 269.941 C 122.703 269.786,123.909 269.341,124.762 268.952 C 125.615 268.564,126.791 268.126,127.377 267.979 C 127.963 267.832,128.530 267.485,128.636 267.207 C 128.742 266.930,129.586 266.590,130.510 266.451 C 131.434 266.313,132.190 266.047,132.190 265.862 C 132.190 265.468,130.987 265.480,129.264 265.890 M268.611 265.880 C 268.283 266.083,268.604 266.279,269.561 266.458 C 270.356 266.607,271.425 267.058,271.936 267.460 C 272.447 267.862,273.175 268.190,273.555 268.190 C 273.935 268.190,275.051 268.619,276.037 269.143 C 277.022 269.667,278.050 270.095,278.321 270.095 C 278.592 270.095,279.381 270.421,280.073 270.820 C 280.766 271.219,281.879 271.659,282.545 271.797 C 283.212 271.936,283.957 272.291,284.202 272.586 C 284.447 272.881,285.274 273.234,286.038 273.370 C 286.803 273.506,288.029 273.931,288.762 274.314 C 289.495 274.698,291.416 275.624,293.031 276.372 C 294.646 277.121,296.058 277.881,296.170 278.062 C 296.282 278.244,296.821 278.504,297.368 278.641 C 297.915 278.779,298.816 279.199,299.372 279.576 C 299.927 279.953,301.067 280.690,301.905 281.213 C 302.743 281.736,303.923 282.491,304.527 282.891 C 305.130 283.292,305.905 283.790,306.248 284.000 C 306.916 284.408,307.232 284.686,310.504 287.735 C 316.164 293.010,318.255 297.288,319.941 307.048 C 320.141 308.200,320.562 310.429,320.877 312.000 C 321.610 315.646,322.140 318.798,322.866 323.810 C 323.185 326.010,323.695 329.010,324.000 330.476 C 324.305 331.943,324.655 334.086,324.777 335.238 C 325.085 338.154,325.309 339.107,325.638 338.904 C 326.076 338.634,325.079 329.523,324.425 327.810 C 324.092 326.938,323.836 325.022,323.826 323.335 C 323.815 321.390,323.544 319.618,323.032 318.137 C 322.604 316.902,322.119 314.282,321.953 312.315 C 321.777 310.230,321.404 308.347,321.060 307.798 C 320.734 307.281,320.353 305.486,320.212 303.810 C 320.071 302.133,319.723 300.404,319.438 299.966 C 319.152 299.528,318.717 298.419,318.471 297.503 C 318.224 296.586,317.695 295.421,317.297 294.914 C 316.898 294.407,316.571 293.828,316.571 293.628 C 316.571 292.790,310.338 286.015,308.166 284.492 C 307.656 284.135,306.724 283.444,306.095 282.958 C 304.297 281.567,301.893 280.000,301.558 280.000 C 301.390 280.000,300.744 279.571,300.121 279.048 C 299.498 278.524,298.686 278.095,298.315 278.095 C 297.944 278.095,297.240 277.748,296.750 277.323 C 296.260 276.898,295.420 276.443,294.882 276.312 C 294.345 276.181,293.496 275.758,292.996 275.370 C 292.497 274.983,291.709 274.667,291.246 274.667 C 290.783 274.667,290.102 274.334,289.734 273.926 C 289.365 273.519,288.524 273.068,287.865 272.923 C 287.206 272.779,286.069 272.340,285.339 271.949 C 284.609 271.558,283.787 271.238,283.512 271.238 C 283.237 271.238,282.208 270.810,281.224 270.286 C 280.240 269.762,279.071 269.333,278.626 269.333 C 278.181 269.333,277.381 268.990,276.848 268.571 C 276.316 268.152,275.632 267.810,275.330 267.810 C 275.028 267.810,274.026 267.410,273.104 266.921 C 271.129 265.875,269.304 265.452,268.611 265.880 " stroke="none" fill="#eead7f" fill-rule="evenodd"></path><path id="path3" d="M181.527 0.608 C 110.876 7.020,49.696 47.682,19.309 108.424 C 15.768 115.501,11.190 126.167,10.498 128.952 C 10.445 129.162,10.193 129.848,9.936 130.476 C 9.679 131.105,9.377 132.133,9.265 132.762 C 9.153 133.390,8.651 134.963,8.150 136.255 C 7.648 137.548,7.238 139.143,7.238 139.800 C 7.238 140.457,6.916 141.713,6.521 142.592 C 6.127 143.471,5.684 145.390,5.538 146.857 C 5.391 148.324,5.008 149.933,4.687 150.433 C 4.337 150.980,3.979 152.880,3.792 155.195 C 3.620 157.314,3.217 159.671,2.896 160.432 C 2.503 161.363,2.182 164.220,1.914 169.152 C 1.442 177.854,1.228 179.429,0.523 179.429 C 0.092 179.429,0.000 181.367,0.000 190.476 C 0.000 199.585,0.092 201.524,0.523 201.524 C 1.228 201.524,1.442 203.099,1.914 211.800 C 2.173 216.578,2.509 219.605,2.875 220.482 C 3.184 221.223,3.590 223.583,3.776 225.727 C 3.969 227.947,4.358 230.013,4.679 230.527 C 4.990 231.023,5.430 232.935,5.658 234.776 C 5.885 236.617,6.334 238.498,6.655 238.956 C 6.976 239.414,7.242 240.393,7.247 241.132 C 7.252 241.871,7.680 243.505,8.198 244.762 C 8.716 246.019,9.140 247.348,9.141 247.716 C 9.142 248.084,9.982 250.655,11.007 253.430 C 22.922 285.687,43.510 314.164,70.922 336.306 C 72.530 337.604,73.924 338.667,74.020 338.667 C 74.116 338.667,74.317 336.824,74.467 334.571 C 74.616 332.319,75.044 329.533,75.418 328.381 C 75.792 327.229,76.209 324.597,76.345 322.532 C 76.481 320.468,76.839 318.302,77.141 317.718 C 77.442 317.135,77.803 315.224,77.942 313.472 C 78.081 311.719,78.495 309.600,78.862 308.762 C 79.229 307.924,79.652 306.038,79.802 304.571 C 79.952 303.105,80.401 301.186,80.799 300.307 C 81.198 299.428,81.524 298.367,81.524 297.950 C 81.524 297.076,81.979 295.994,83.162 294.058 C 84.855 291.289,85.564 290.419,88.371 287.658 C 92.103 283.989,92.728 283.429,93.087 283.429 C 93.251 283.429,94.332 282.657,95.489 281.714 C 96.647 280.771,97.837 280.000,98.134 280.000 C 98.431 280.000,98.972 279.652,99.336 279.228 C 99.699 278.803,100.640 278.282,101.427 278.070 C 102.214 277.858,102.857 277.533,102.857 277.348 C 102.857 277.163,103.500 276.802,104.286 276.546 C 105.071 276.289,106.123 275.762,106.623 275.373 C 107.122 274.985,107.914 274.667,108.381 274.667 C 108.848 274.667,109.645 274.340,110.153 273.941 C 110.660 273.543,111.754 273.026,112.585 272.792 C 113.416 272.559,114.428 272.114,114.835 271.803 C 115.241 271.492,115.892 271.238,116.281 271.238 C 116.669 271.238,117.792 270.810,118.776 270.286 C 119.760 269.762,120.929 269.333,121.374 269.333 C 121.819 269.333,122.592 269.015,123.091 268.627 C 123.591 268.238,124.621 267.806,125.380 267.666 C 126.138 267.527,127.138 267.084,127.601 266.682 C 128.081 266.266,129.340 265.840,130.525 265.692 C 132.457 265.450,132.564 265.385,132.017 264.781 C 131.694 264.423,131.429 263.951,131.429 263.731 C 131.429 263.511,131.185 263.130,130.888 262.883 C 130.591 262.636,129.635 261.287,128.763 259.884 C 127.891 258.481,126.669 256.648,126.046 255.810 C 125.424 254.971,124.653 253.771,124.332 253.143 C 124.012 252.514,123.264 251.143,122.670 250.095 C 121.151 247.418,118.857 242.835,118.857 242.478 C 118.857 242.313,118.530 241.474,118.130 240.613 C 114.506 232.811,113.461 215.838,116.219 209.571 C 116.622 208.654,116.953 207.711,116.954 207.475 C 116.956 206.644,120.367 200.316,121.905 198.292 C 122.429 197.603,123.073 196.719,123.336 196.329 C 123.600 195.938,124.639 194.419,125.645 192.952 C 129.815 186.875,131.052 180.067,128.863 175.238 C 128.436 174.295,127.962 172.924,127.810 172.190 C 127.658 171.457,127.316 170.600,127.050 170.286 C 126.784 169.971,126.443 169.286,126.292 168.762 C 126.014 167.796,124.366 164.092,123.750 163.048 C 123.565 162.733,123.155 161.876,122.840 161.143 C 122.525 160.410,122.099 159.552,121.893 159.238 C 121.687 158.924,121.334 158.238,121.109 157.714 C 120.884 157.190,120.263 155.819,119.729 154.667 C 119.195 153.514,118.441 151.886,118.053 151.048 C 116.718 148.166,115.525 144.950,115.277 143.562 C 115.140 142.798,114.737 141.598,114.381 140.895 C 113.501 139.157,113.502 130.366,114.382 127.048 C 114.715 125.790,115.191 123.133,115.440 121.143 C 115.689 119.152,116.055 117.218,116.253 116.843 C 116.451 116.469,116.867 114.594,117.177 112.676 C 117.487 110.758,117.903 108.994,118.101 108.755 C 118.298 108.517,118.708 107.221,119.011 105.875 C 119.622 103.166,120.431 100.707,121.775 97.476 C 122.265 96.298,122.667 95.140,122.667 94.903 C 122.667 94.667,123.010 93.834,123.429 93.052 C 123.848 92.270,124.190 91.394,124.190 91.105 C 124.190 90.816,124.518 89.957,124.917 89.195 C 125.317 88.433,126.710 85.667,128.013 83.048 C 129.315 80.429,130.782 77.600,131.272 76.762 C 131.762 75.924,132.599 74.467,133.133 73.524 C 133.666 72.581,134.261 71.552,134.456 71.238 C 134.994 70.371,136.762 66.375,136.762 66.027 C 136.762 65.193,140.342 58.718,142.799 55.111 C 144.683 52.343,150.597 46.450,153.148 44.798 C 154.088 44.189,155.286 43.408,155.810 43.062 C 157.162 42.169,161.769 40.000,162.312 40.000 C 162.562 40.000,163.302 39.672,163.955 39.270 C 164.608 38.869,165.829 38.417,166.667 38.266 C 167.505 38.116,168.801 37.753,169.548 37.460 C 170.295 37.166,172.352 36.688,174.119 36.396 C 175.887 36.104,178.105 35.679,179.048 35.451 C 184.902 34.036,215.521 34.284,221.524 35.795 C 223.200 36.217,225.171 36.572,225.905 36.584 C 226.638 36.595,227.924 36.865,228.762 37.183 C 229.600 37.501,231.143 37.984,232.190 38.257 C 233.238 38.530,234.610 39.033,235.238 39.375 C 235.867 39.716,236.581 39.996,236.825 39.998 C 237.664 40.002,241.800 42.446,245.861 45.335 C 248.455 47.182,258.423 56.904,260.867 59.973 C 263.437 63.199,267.265 68.704,269.496 72.381 C 269.941 73.114,270.518 74.057,270.779 74.476 C 271.040 74.895,271.521 75.838,271.849 76.571 C 272.176 77.305,273.201 79.454,274.127 81.348 C 275.052 83.241,275.810 84.937,275.810 85.116 C 275.810 85.294,276.138 86.145,276.540 87.006 C 277.327 88.692,278.140 91.037,279.196 94.667 C 279.561 95.924,280.054 97.308,280.289 97.744 C 280.525 98.179,280.838 99.465,280.984 100.601 C 281.129 101.737,281.544 103.438,281.905 104.381 C 282.266 105.324,282.682 107.038,282.830 108.190 C 282.977 109.343,283.430 111.482,283.835 112.945 C 284.240 114.407,284.574 116.293,284.578 117.135 C 284.582 117.978,284.929 120.210,285.351 122.095 C 286.714 128.196,286.828 138.500,285.572 142.124 C 285.021 143.711,284.571 145.235,284.571 145.511 C 284.571 145.786,284.245 146.716,283.845 147.577 C 281.975 151.611,281.198 153.408,280.946 154.286 C 280.795 154.810,280.466 155.495,280.214 155.810 C 279.807 156.318,278.140 159.671,276.994 162.286 C 276.765 162.810,276.416 163.495,276.220 163.810 C 275.413 165.103,272.000 173.175,272.000 173.791 C 272.000 174.078,271.657 175.288,271.238 176.480 C 269.717 180.806,270.514 186.251,273.313 190.667 C 274.360 192.319,276.610 195.682,277.714 197.247 C 279.986 200.465,282.667 205.111,282.667 205.828 C 282.667 206.086,282.992 206.905,283.391 207.648 C 283.789 208.391,284.404 210.445,284.757 212.214 C 285.110 213.982,285.548 216.114,285.731 216.952 C 286.176 219.001,286.151 225.303,285.689 227.429 C 285.484 228.371,285.126 230.257,284.893 231.619 C 284.454 234.190,282.503 240.596,281.943 241.307 C 281.767 241.531,281.427 242.323,281.188 243.067 C 280.674 244.666,278.038 249.913,276.797 251.810 C 276.317 252.543,275.383 254.000,274.721 255.048 C 274.060 256.095,273.343 257.210,273.128 257.524 C 267.543 265.703,267.538 265.717,269.651 265.801 C 270.455 265.833,271.938 266.298,272.946 266.834 C 273.955 267.371,275.028 267.810,275.330 267.810 C 275.632 267.810,276.316 268.152,276.848 268.571 C 277.381 268.990,278.181 269.333,278.626 269.333 C 279.071 269.333,280.240 269.762,281.224 270.286 C 282.208 270.810,283.237 271.238,283.512 271.238 C 283.787 271.238,284.609 271.558,285.339 271.949 C 286.069 272.340,287.206 272.779,287.865 272.923 C 288.524 273.068,289.365 273.519,289.734 273.926 C 290.102 274.334,290.783 274.667,291.246 274.667 C 291.709 274.667,292.497 274.983,292.996 275.370 C 293.496 275.758,294.345 276.181,294.882 276.312 C 295.420 276.443,296.260 276.898,296.750 277.323 C 297.240 277.748,297.944 278.095,298.315 278.095 C 298.686 278.095,299.498 278.524,300.121 279.048 C 300.744 279.571,301.390 280.000,301.558 280.000 C 301.893 280.000,304.297 281.567,306.095 282.958 C 306.724 283.444,307.656 284.135,308.166 284.492 C 310.338 286.015,316.571 292.790,316.571 293.628 C 316.571 293.828,316.898 294.407,317.297 294.914 C 317.695 295.421,318.224 296.586,318.471 297.503 C 318.717 298.419,319.152 299.528,319.438 299.966 C 319.723 300.404,320.071 302.133,320.212 303.810 C 320.353 305.486,320.734 307.281,321.060 307.798 C 321.404 308.347,321.777 310.230,321.953 312.315 C 322.119 314.282,322.604 316.902,323.032 318.137 C 323.546 319.621,323.810 321.353,323.810 323.238 C 323.810 325.041,324.080 326.900,324.542 328.284 C 324.945 329.490,325.392 332.190,325.535 334.286 C 325.868 339.175,325.668 339.060,329.073 336.310 C 353.719 316.403,373.278 290.792,385.349 262.624 C 386.948 258.891,389.258 252.984,389.502 252.000 C 389.555 251.790,389.807 251.105,390.064 250.476 C 390.321 249.848,390.623 248.819,390.735 248.190 C 390.847 247.562,391.349 245.990,391.850 244.697 C 392.352 243.404,392.762 241.771,392.762 241.067 C 392.762 240.364,393.024 239.414,393.345 238.956 C 393.666 238.498,394.115 236.617,394.342 234.776 C 394.570 232.935,395.010 231.023,395.321 230.527 C 395.642 230.013,396.031 227.947,396.224 225.727 C 396.410 223.583,396.816 221.223,397.125 220.482 C 397.491 219.605,397.827 216.578,398.086 211.800 C 398.558 203.099,398.772 201.524,399.477 201.524 C 400.236 201.524,400.254 180.001,399.495 179.543 C 398.611 179.009,398.455 177.937,398.083 169.829 C 397.818 164.051,397.552 161.504,397.107 160.469 C 396.771 159.687,396.364 157.319,396.203 155.206 C 396.023 152.841,395.683 151.011,395.320 150.444 C 394.995 149.938,394.609 148.324,394.462 146.857 C 394.316 145.390,393.873 143.471,393.479 142.592 C 393.084 141.713,392.762 140.457,392.762 139.800 C 392.762 139.143,392.352 137.548,391.850 136.255 C 391.349 134.963,390.847 133.390,390.735 132.762 C 390.623 132.133,390.321 131.105,390.064 130.476 C 389.807 129.848,389.555 129.162,389.502 128.952 C 388.810 126.167,384.232 115.501,380.691 108.424 C 344.658 36.397,264.614 -6.934,181.527 0.608 M196.762 42.264 C 191.535 43.774,184.762 48.214,184.762 50.131 C 184.762 50.374,184.526 50.769,184.237 51.009 C 183.948 51.249,183.224 52.770,182.627 54.389 C 178.236 66.306,187.279 79.241,200.000 79.241 C 208.150 79.241,214.210 74.701,217.784 65.917 C 219.280 62.240,218.010 52.874,215.763 51.009 C 215.474 50.769,215.238 50.363,215.238 50.107 C 215.238 49.850,214.252 48.708,213.048 47.570 C 211.035 45.669,209.222 44.586,205.143 42.852 C 203.412 42.115,198.475 41.769,196.762 42.264 M203.033 47.983 C 203.443 48.242,203.631 49.347,203.744 52.157 C 203.934 56.893,203.918 56.878,208.512 56.792 C 212.746 56.714,213.022 56.913,213.262 60.220 C 213.529 63.909,213.002 64.381,208.622 64.381 C 204.063 64.381,203.928 64.514,203.751 69.180 C 203.583 73.591,203.342 73.905,200.119 73.905 C 196.301 73.905,196.190 73.779,196.190 69.445 C 196.190 64.517,196.061 64.381,191.378 64.381 C 187.035 64.381,186.657 64.040,186.824 60.268 C 186.964 57.099,187.147 56.967,191.535 56.874 C 196.161 56.776,196.190 56.744,196.190 51.768 C 196.190 49.161,196.332 48.007,196.667 47.871 C 197.508 47.532,202.457 47.619,203.033 47.983 M189.426 94.764 C 185.918 98.275,181.590 102.768,179.810 104.749 C 178.029 106.730,176.143 108.785,175.619 109.315 C 175.095 109.846,174.410 110.649,174.095 111.100 C 173.781 111.551,171.797 114.038,169.686 116.626 C 167.575 119.215,165.249 122.207,164.518 123.275 C 163.786 124.343,162.987 125.457,162.742 125.751 C 161.328 127.450,160.415 128.703,159.852 129.714 C 159.503 130.343,158.536 131.800,157.704 132.952 C 156.872 134.105,156.191 135.208,156.191 135.404 C 156.191 135.600,155.861 136.114,155.458 136.547 C 154.763 137.293,152.913 140.468,151.226 143.810 C 150.803 144.648,150.176 145.848,149.833 146.476 C 149.490 147.105,149.039 147.962,148.831 148.381 C 148.623 148.800,148.320 149.400,148.158 149.714 C 147.455 151.081,146.270 153.841,145.741 155.347 C 145.425 156.245,144.905 157.354,144.584 157.813 C 144.263 158.271,144.000 159.082,144.000 159.614 C 144.000 160.147,143.679 161.181,143.287 161.912 C 142.895 162.644,142.451 164.013,142.299 164.954 C 142.147 165.896,141.781 167.167,141.485 167.778 C 140.840 169.110,139.685 176.536,139.980 177.450 C 140.095 177.805,140.746 178.397,141.428 178.766 L 142.667 179.437 141.678 178.576 C 140.183 177.273,140.139 171.689,141.602 168.952 C 141.827 168.533,142.216 167.162,142.468 165.905 C 142.721 164.648,143.156 163.258,143.436 162.818 C 143.716 162.377,144.070 161.350,144.222 160.535 C 144.375 159.720,144.902 158.298,145.393 157.375 C 145.884 156.452,146.286 155.411,146.286 155.064 C 146.286 154.716,146.540 154.099,146.851 153.692 C 147.162 153.285,147.607 152.273,147.840 151.442 C 148.073 150.611,148.578 149.532,148.963 149.043 C 149.347 148.554,149.773 147.648,149.909 147.030 C 150.045 146.411,150.295 145.905,150.465 145.905 C 150.635 145.905,151.057 145.262,151.403 144.476 C 152.720 141.483,158.587 132.027,162.095 127.242 C 162.514 126.670,163.198 125.707,163.614 125.101 C 164.030 124.496,164.589 123.772,164.855 123.494 C 165.121 123.216,165.522 122.646,165.746 122.227 C 166.177 121.421,166.884 120.547,168.286 119.090 C 168.757 118.600,169.143 118.053,169.143 117.874 C 169.143 117.696,169.483 117.202,169.899 116.775 C 171.670 114.959,174.472 111.472,174.675 110.830 C 174.797 110.447,175.230 110.028,175.639 109.899 C 176.047 109.769,176.381 109.508,176.381 109.318 C 176.381 109.128,177.152 108.201,178.095 107.258 C 179.038 106.315,179.810 105.437,179.810 105.307 C 179.810 104.778,196.042 88.764,196.571 88.771 C 196.886 88.775,197.571 89.114,198.095 89.524 C 198.619 89.934,199.305 90.272,199.619 90.275 C 199.933 90.279,199.505 89.859,198.667 89.343 C 196.327 87.902,196.222 87.963,189.426 94.764 M201.333 91.250 C 201.962 91.765,202.623 92.188,202.802 92.189 C 202.981 92.190,203.667 92.613,204.326 93.129 C 205.575 94.107,205.824 94.312,208.052 96.190 C 208.797 96.819,209.950 97.762,210.614 98.286 C 211.278 98.810,213.080 100.438,214.618 101.905 C 216.156 103.371,218.082 105.186,218.898 105.938 C 222.304 109.076,231.166 118.649,232.739 120.887 C 233.040 121.317,233.555 121.968,233.882 122.334 C 234.668 123.214,235.419 124.197,237.918 127.619 C 239.066 129.190,240.275 130.819,240.605 131.238 C 240.935 131.657,242.073 133.371,243.133 135.048 C 244.193 136.724,245.465 138.704,245.959 139.449 C 246.453 140.194,246.857 140.987,246.857 141.212 C 246.857 141.437,247.129 141.847,247.461 142.122 C 247.793 142.398,248.326 143.276,248.645 144.074 C 248.964 144.871,249.372 145.524,249.550 145.524 C 249.729 145.524,250.069 146.252,250.306 147.143 C 250.544 148.033,250.957 149.019,251.225 149.333 C 251.494 149.648,251.915 150.534,252.162 151.303 C 252.409 152.072,252.859 152.907,253.162 153.159 C 253.466 153.411,253.716 153.896,253.718 154.237 C 253.720 154.578,254.143 155.714,254.658 156.762 C 255.174 157.810,255.601 158.930,255.607 159.253 C 255.614 159.575,255.949 160.485,256.351 161.275 C 256.754 162.065,257.200 163.430,257.341 164.308 C 257.483 165.186,257.902 166.601,258.271 167.453 C 258.640 168.305,259.065 170.019,259.214 171.263 C 259.364 172.506,259.661 174.234,259.874 175.102 C 260.149 176.224,260.136 176.913,259.831 177.483 C 259.488 178.124,259.511 178.286,259.942 178.286 C 261.110 178.286,260.866 175.771,259.001 168.571 C 258.784 167.733,258.338 166.019,258.011 164.762 C 257.683 163.505,257.097 161.853,256.708 161.091 C 256.318 160.329,256.000 159.403,256.000 159.034 C 256.000 158.375,255.754 157.805,252.638 151.238 C 251.793 149.457,250.824 147.400,250.486 146.667 C 250.148 145.933,249.372 144.476,248.762 143.429 C 248.152 142.381,247.391 141.010,247.070 140.381 C 246.749 139.752,245.977 138.552,245.354 137.714 C 244.730 136.876,243.965 135.676,243.653 135.048 C 243.341 134.419,242.606 133.267,242.019 132.488 C 241.432 131.708,240.195 129.994,239.268 128.678 C 237.863 126.681,235.080 123.092,232.097 119.429 C 224.781 110.443,209.657 96.197,202.174 91.243 C 200.333 90.024,199.843 90.028,201.333 91.250 M257.741 178.884 C 257.412 179.214,257.143 179.735,257.143 180.042 C 257.143 180.350,256.800 181.274,256.381 182.095 C 255.962 182.917,255.634 183.896,255.652 184.271 C 255.674 184.739,255.780 184.654,255.989 184.000 C 256.156 183.476,256.569 182.533,256.906 181.905 C 257.243 181.276,257.520 180.472,257.521 180.117 C 257.523 179.762,257.905 179.205,258.370 178.879 C 258.836 178.553,259.020 178.286,258.779 178.286 C 258.537 178.286,258.071 178.555,257.741 178.884 M142.536 180.381 C 142.521 180.800,142.837 181.743,143.238 182.476 C 143.640 183.210,143.975 183.548,143.984 183.228 C 143.993 182.908,143.763 182.308,143.474 181.894 C 143.185 181.481,142.862 180.800,142.757 180.381 L 142.565 179.619 142.536 180.381 M254.772 186.589 C 254.410 187.365,254.014 188.514,253.890 189.143 C 253.766 189.771,254.104 189.257,254.640 188.000 C 255.713 185.485,255.820 184.337,254.772 186.589 M144.387 186.106 C 144.384 186.321,144.613 186.835,144.897 187.249 C 145.180 187.662,145.610 188.514,145.851 189.143 L 146.290 190.286 146.070 189.143 C 145.848 187.992,144.399 185.377,144.387 186.106 M146.288 190.562 C 146.287 190.714,146.628 191.400,147.046 192.086 C 147.464 192.772,147.806 193.162,147.806 192.952 C 147.805 192.743,147.464 192.057,147.048 191.429 C 146.631 190.800,146.290 190.410,146.288 190.562 M252.837 191.594 C 252.481 192.196,252.191 192.834,252.192 193.011 C 252.193 193.188,252.545 192.757,252.974 192.052 C 253.404 191.348,253.694 190.710,253.620 190.635 C 253.545 190.561,253.193 190.992,252.837 191.594 M147.834 193.958 C 147.820 194.301,148.147 194.987,148.559 195.482 C 148.971 195.976,149.314 196.177,149.321 195.927 C 149.328 195.678,149.150 195.360,148.926 195.222 C 148.701 195.083,148.369 194.601,148.188 194.151 C 147.951 193.565,147.851 193.510,147.834 193.958 M251.840 193.875 C 251.823 194.173,251.525 194.731,251.177 195.115 C 250.829 195.500,250.644 195.914,250.766 196.035 C 251.108 196.378,252.287 194.372,252.066 193.822 C 251.919 193.457,251.862 193.470,251.840 193.875 M150.527 199.167 C 151.016 200.016,151.474 200.653,151.546 200.581 C 151.747 200.380,150.533 198.175,150.060 197.883 C 149.828 197.740,150.039 198.318,150.527 199.167 M249.139 198.952 C 248.525 199.959,248.037 201.328,248.505 200.730 C 249.073 200.006,250.300 197.714,250.121 197.714 C 249.996 197.714,249.554 198.271,249.139 198.952 M188.381 199.079 C 187.752 199.433,186.402 199.864,185.380 200.036 C 184.358 200.209,183.233 200.612,182.879 200.933 C 182.525 201.253,181.694 201.623,181.031 201.756 C 178.685 202.225,178.617 203.610,180.855 205.310 C 181.432 205.749,182.248 206.368,182.667 206.686 C 183.086 207.004,184.095 207.773,184.910 208.394 C 185.724 209.015,186.603 209.524,186.863 209.524 C 187.123 209.524,187.541 209.772,187.793 210.076 C 188.045 210.379,188.881 210.830,189.650 211.076 C 190.418 211.323,191.305 211.745,191.619 212.015 C 191.933 212.284,193.177 212.685,194.382 212.906 C 195.588 213.127,196.905 213.485,197.310 213.702 C 198.356 214.262,201.583 214.189,203.096 213.571 C 203.803 213.282,205.181 212.931,206.159 212.790 C 207.137 212.649,208.135 212.296,208.376 212.006 C 208.617 211.715,209.296 211.372,209.884 211.243 C 210.472 211.113,211.522 210.588,212.218 210.075 C 212.913 209.562,213.640 209.143,213.833 209.143 C 214.027 209.143,214.738 208.671,215.413 208.095 C 216.089 207.519,217.031 206.790,217.508 206.476 C 219.391 205.234,220.156 204.519,220.390 203.781 C 220.710 202.772,219.957 201.905,218.760 201.905 C 218.234 201.905,217.270 201.580,216.616 201.184 C 215.963 200.788,214.829 200.340,214.095 200.189 C 213.362 200.038,212.444 199.634,212.055 199.291 C 210.891 198.262,204.575 198.417,201.992 199.538 L 199.983 200.409 198.182 199.579 C 195.701 198.436,190.035 198.147,188.381 199.079 M151.619 201.316 C 151.619 201.412,152.048 202.122,152.571 202.893 C 153.701 204.557,153.851 204.161,152.766 202.381 C 152.089 201.271,151.619 200.835,151.619 201.316 M247.713 201.619 C 247.504 201.881,247.031 202.695,246.661 203.429 C 246.291 204.162,245.880 204.848,245.748 204.952 C 245.615 205.057,245.217 205.571,244.863 206.095 C 244.509 206.619,243.527 208.051,242.681 209.277 C 240.869 211.902,240.668 212.512,242.286 210.476 C 242.914 209.685,243.429 208.890,243.429 208.710 C 243.429 208.529,243.729 208.075,244.095 207.701 C 244.846 206.937,246.346 204.709,247.550 202.571 C 248.356 201.142,248.427 200.724,247.713 201.619 M155.313 207.159 C 157.311 210.044,158.857 211.990,158.857 211.619 C 158.857 211.483,158.091 210.375,157.155 209.159 C 156.219 207.942,155.253 206.508,155.008 205.971 C 154.764 205.434,154.334 204.906,154.053 204.799 C 153.773 204.691,154.340 205.753,155.313 207.159 M159.405 212.857 C 159.706 213.224,162.359 215.995,165.299 219.015 C 168.239 222.035,170.722 224.692,170.816 224.920 C 170.921 225.173,170.999 225.146,171.018 224.851 C 171.034 224.586,169.152 222.529,166.835 220.280 C 164.518 218.031,161.925 215.290,161.074 214.190 C 160.223 213.090,159.376 212.190,159.192 212.190 C 159.008 212.190,159.104 212.490,159.405 212.857 M239.222 213.810 C 238.514 214.700,238.236 215.187,238.604 214.891 C 239.298 214.334,240.930 212.190,240.661 212.190 C 240.577 212.190,239.929 212.919,239.222 213.810 M234.129 219.272 C 232.120 221.282,230.476 222.999,230.476 223.089 C 230.476 223.316,234.139 219.821,236.304 217.527 C 239.294 214.359,238.021 215.380,234.129 219.272 M171.103 226.286 C 171.091 226.810,171.343 227.924,171.664 228.762 C 171.984 229.600,172.393 231.743,172.572 233.524 L 172.897 236.762 172.792 233.130 C 172.731 231.044,172.471 229.098,172.182 228.558 C 171.904 228.042,171.553 227.105,171.401 226.476 C 171.152 225.445,171.123 225.426,171.103 226.286 M228.602 225.941 C 228.585 226.276,228.319 227.056,228.010 227.676 C 227.701 228.295,227.365 230.079,227.264 231.639 C 227.108 234.035,227.129 234.180,227.398 232.571 C 227.574 231.524,228.008 229.678,228.364 228.469 C 228.720 227.260,228.926 226.060,228.821 225.802 C 228.702 225.507,228.620 225.559,228.602 225.941 M226.454 238.381 C 226.074 241.846,226.105 244.515,226.569 248.190 C 226.845 250.369,226.910 249.445,226.929 243.143 C 226.955 234.541,226.918 234.161,226.454 238.381 M173.085 243.429 L 173.069 250.095 173.601 246.465 C 174.052 243.389,174.055 242.370,173.617 239.798 L 173.101 236.762 173.085 243.429 M172.483 251.860 C 172.252 253.431,172.815 256.358,173.492 257.114 C 173.789 257.444,174.154 258.400,174.305 259.238 C 174.456 260.076,174.876 261.362,175.240 262.095 C 175.603 262.829,176.020 264.249,176.166 265.253 C 176.312 266.256,176.716 267.713,177.062 268.491 C 177.875 270.314,178.016 283.853,177.237 285.215 C 176.668 286.210,175.592 291.109,175.998 290.858 C 176.154 290.762,176.393 289.982,176.530 289.124 C 176.667 288.267,177.076 287.114,177.437 286.562 C 178.561 284.847,178.407 269.861,177.238 267.167 C 176.767 266.081,176.380 264.624,176.380 263.929 C 176.379 263.235,176.062 262.149,175.676 261.516 C 175.291 260.883,174.850 259.703,174.698 258.893 C 174.547 258.083,174.074 256.949,173.649 256.374 C 173.071 255.592,172.876 254.743,172.876 252.998 C 172.876 250.419,172.748 250.050,172.483 251.860 M227.172 254.762 C 226.799 256.417,226.180 258.068,224.352 262.286 C 223.988 263.124,223.577 264.793,223.438 265.995 C 223.298 267.197,222.901 268.740,222.555 269.424 C 221.589 271.329,221.619 283.815,222.593 285.714 C 222.969 286.448,223.378 287.781,223.501 288.677 C 223.625 289.573,223.880 290.402,224.068 290.519 C 224.441 290.749,224.416 290.606,223.188 285.524 C 222.143 281.198,222.042 274.188,222.972 270.476 C 223.313 269.114,223.758 267.143,223.961 266.095 C 224.369 263.986,225.887 259.486,226.788 257.714 C 227.341 256.628,228.073 252.952,227.738 252.952 C 227.650 252.952,227.396 253.767,227.172 254.762 " stroke="none" fill="#eb4c4c" fill-rule="evenodd"></path><path id="path4" d="M189.905 38.460 C 187.600 38.628,185.200 38.972,184.571 39.225 C 183.943 39.477,182.314 39.917,180.952 40.203 C 173.968 41.670,164.997 46.117,159.263 50.955 C 155.383 54.229,150.451 59.628,148.391 62.857 C 147.789 63.800,146.898 65.181,146.410 65.925 C 145.923 66.670,145.524 67.463,145.524 67.688 C 145.524 67.913,145.275 68.303,144.972 68.555 C 144.668 68.807,144.218 69.642,143.971 70.411 C 143.725 71.180,143.303 72.067,143.035 72.381 C 142.767 72.695,142.355 73.674,142.120 74.555 C 141.886 75.437,141.544 76.251,141.361 76.364 C 141.178 76.477,140.813 77.469,140.549 78.568 C 140.286 79.668,139.758 81.254,139.377 82.093 C 138.995 82.932,138.680 84.084,138.675 84.653 C 138.670 85.221,138.338 86.520,137.937 87.538 C 137.526 88.579,137.012 91.380,136.762 93.933 C 136.517 96.432,136.182 99.205,136.017 100.095 C 135.628 102.199,136.926 102.347,139.467 100.487 C 141.247 99.183,142.492 98.431,144.952 97.171 C 145.790 96.742,146.733 96.231,147.048 96.036 C 148.095 95.386,151.416 93.821,152.381 93.523 C 152.905 93.361,153.742 92.909,154.242 92.519 C 154.742 92.129,155.493 91.810,155.911 91.810 C 156.330 91.810,157.206 91.481,157.860 91.080 C 158.513 90.678,159.733 90.226,160.571 90.076 C 161.410 89.925,162.699 89.498,163.438 89.128 C 164.176 88.757,165.633 88.329,166.676 88.177 C 167.718 88.024,169.171 87.603,169.905 87.241 C 170.638 86.878,172.383 86.469,173.782 86.331 C 175.180 86.193,176.931 85.827,177.671 85.517 C 178.430 85.200,181.393 84.789,184.461 84.575 C 187.455 84.366,191.105 84.008,192.571 83.780 C 197.575 82.999,217.146 84.149,221.905 85.503 C 222.952 85.801,225.027 86.210,226.515 86.412 C 228.003 86.614,229.751 87.054,230.401 87.390 C 231.050 87.725,231.975 88.006,232.457 88.012 C 232.939 88.019,234.276 88.369,235.429 88.791 C 236.581 89.212,238.381 89.774,239.429 90.040 C 240.476 90.306,241.762 90.796,242.286 91.129 C 242.810 91.462,243.783 91.848,244.450 91.987 C 245.116 92.126,245.866 92.486,246.116 92.786 C 246.365 93.087,246.765 93.333,247.005 93.333 C 247.445 93.333,251.900 95.346,252.952 96.020 C 253.267 96.222,253.952 96.593,254.476 96.845 C 255.000 97.097,255.913 97.696,256.505 98.176 C 257.098 98.655,257.814 99.048,258.097 99.048 C 258.380 99.048,258.839 99.262,259.116 99.524 C 261.935 102.191,263.620 102.532,263.618 100.435 C 263.614 97.149,262.737 90.226,262.078 88.284 C 261.668 87.079,261.333 85.529,261.333 84.841 C 261.333 84.153,260.992 82.920,260.575 82.102 C 260.158 81.284,259.708 80.005,259.576 79.259 C 259.444 78.514,259.014 77.370,258.620 76.717 C 258.227 76.064,257.905 75.330,257.905 75.087 C 257.905 74.567,255.670 69.961,254.097 67.238 C 253.491 66.190,252.798 64.862,252.556 64.286 C 252.314 63.710,251.990 63.238,251.836 63.238 C 251.683 63.238,250.980 62.347,250.274 61.258 C 249.082 59.419,247.496 57.563,244.190 54.140 C 241.015 50.852,235.575 46.935,231.048 44.677 C 229.581 43.945,228.061 43.180,227.671 42.976 C 226.408 42.318,221.587 40.744,219.238 40.224 C 217.981 39.945,215.933 39.439,214.686 39.098 C 211.994 38.362,196.659 37.967,189.905 38.460 M211.048 39.080 C 212.200 39.209,213.423 39.465,213.765 39.647 C 214.107 39.830,215.650 40.170,217.194 40.404 C 218.737 40.637,220.514 41.081,221.143 41.390 C 221.771 41.699,223.131 42.114,224.164 42.312 C 225.197 42.511,226.325 42.929,226.670 43.241 C 227.016 43.554,227.542 43.820,227.840 43.833 C 228.137 43.847,229.581 44.529,231.048 45.349 C 232.514 46.170,234.262 47.100,234.931 47.417 C 235.601 47.734,236.287 48.226,236.455 48.512 C 236.624 48.798,237.190 49.253,237.714 49.524 C 240.479 50.953,246.912 57.283,249.524 61.145 C 250.048 61.919,250.772 62.875,251.134 63.268 C 251.496 63.661,252.061 64.544,252.389 65.229 C 252.718 65.915,253.483 67.333,254.089 68.381 C 254.696 69.429,255.377 70.714,255.603 71.238 C 255.828 71.762,256.331 72.790,256.718 73.524 C 257.106 74.257,257.534 75.446,257.669 76.165 C 257.804 76.885,258.151 77.742,258.441 78.070 C 258.731 78.398,259.169 79.649,259.415 80.851 C 259.660 82.052,260.005 83.124,260.182 83.233 C 260.359 83.342,260.701 84.674,260.943 86.192 C 261.185 87.710,261.643 89.724,261.960 90.667 C 262.694 92.845,263.130 100.358,262.543 100.721 C 262.079 101.007,260.549 100.263,260.074 99.520 C 259.906 99.256,259.220 98.776,258.550 98.452 C 256.567 97.493,254.848 96.489,254.164 95.890 C 253.812 95.581,253.095 95.202,252.571 95.048 C 252.048 94.893,251.362 94.552,251.048 94.289 C 250.733 94.026,249.790 93.596,248.952 93.333 C 248.114 93.071,247.171 92.634,246.857 92.362 C 246.543 92.091,245.771 91.748,245.143 91.600 C 244.514 91.452,243.486 91.024,242.857 90.650 C 242.229 90.275,241.029 89.843,240.190 89.689 C 239.352 89.535,238.310 89.177,237.875 88.894 C 237.440 88.611,236.068 88.192,234.828 87.964 C 233.587 87.736,232.385 87.395,232.157 87.207 C 231.928 87.019,230.386 86.592,228.728 86.257 C 227.070 85.922,225.029 85.423,224.190 85.147 C 223.352 84.872,221.124 84.522,219.238 84.371 C 217.352 84.219,215.418 83.948,214.940 83.767 C 211.735 82.555,191.585 82.420,186.836 83.578 C 185.591 83.881,182.944 84.245,180.955 84.387 C 178.967 84.528,176.652 84.872,175.813 85.153 C 174.973 85.433,173.171 85.859,171.810 86.100 C 170.448 86.341,168.819 86.779,168.190 87.073 C 167.562 87.368,166.115 87.784,164.975 87.999 C 163.835 88.213,162.549 88.618,162.118 88.899 C 161.686 89.179,160.648 89.535,159.810 89.689 C 158.971 89.843,157.771 90.275,157.143 90.650 C 156.514 91.024,155.486 91.452,154.857 91.600 C 154.229 91.748,153.457 92.091,153.143 92.362 C 152.829 92.634,151.886 93.071,151.048 93.333 C 150.210 93.596,149.267 94.026,148.952 94.289 C 148.638 94.552,147.952 94.893,147.429 95.046 C 146.905 95.200,146.133 95.629,145.714 96.000 C 145.295 96.371,144.524 96.800,144.000 96.954 C 143.476 97.107,142.746 97.497,142.378 97.821 C 142.010 98.144,141.396 98.595,141.014 98.823 C 140.632 99.051,139.733 99.624,139.017 100.095 C 137.938 100.805,137.647 100.862,137.325 100.427 C 136.785 99.699,137.328 91.711,138.038 89.937 C 138.345 89.170,138.718 87.692,138.868 86.652 C 139.018 85.613,139.444 84.076,139.814 83.238 C 140.184 82.400,140.610 80.943,140.761 80.000 C 140.912 79.057,141.264 78.026,141.543 77.709 C 141.823 77.391,142.217 76.393,142.420 75.491 C 142.623 74.589,143.039 73.563,143.346 73.211 C 143.653 72.859,144.109 71.931,144.361 71.148 C 144.612 70.365,144.972 69.630,145.160 69.513 C 145.348 69.397,145.854 68.580,146.283 67.699 C 147.339 65.532,148.036 64.338,148.774 63.429 C 149.115 63.010,149.720 62.152,150.120 61.524 C 150.519 60.895,151.063 60.053,151.328 59.652 C 151.954 58.705,158.896 51.764,159.843 51.137 C 160.244 50.872,161.086 50.328,161.714 49.927 C 162.343 49.526,163.142 48.914,163.491 48.567 C 164.210 47.851,165.214 47.281,169.419 45.202 C 171.048 44.397,173.015 43.411,173.790 43.012 C 174.565 42.612,175.560 42.286,176.001 42.286 C 176.443 42.286,177.523 41.959,178.402 41.561 C 179.281 41.162,181.029 40.709,182.286 40.555 C 183.543 40.401,185.257 40.021,186.095 39.711 C 188.775 38.721,204.344 38.327,211.048 39.080 M132.393 266.381 C 132.533 266.852,133.059 267.847,133.562 268.592 C 134.065 269.337,134.476 270.237,134.476 270.592 C 134.476 270.947,134.815 271.577,135.228 271.990 C 135.642 272.404,136.090 273.179,136.224 273.713 C 136.358 274.248,136.777 274.901,137.154 275.165 C 137.531 275.429,137.959 276.283,138.106 277.064 C 138.252 277.844,138.695 278.894,139.091 279.397 C 139.486 279.899,139.810 280.530,139.810 280.797 C 139.810 281.065,140.162 281.660,140.594 282.119 C 141.094 282.652,141.499 283.812,141.713 285.326 C 141.898 286.630,142.300 287.980,142.608 288.325 C 142.916 288.670,143.292 289.981,143.443 291.238 C 143.595 292.495,144.027 294.315,144.405 295.281 C 145.545 298.202,145.584 307.557,144.463 309.333 C 144.000 310.067,143.621 310.892,143.620 311.168 C 143.620 311.444,143.190 312.232,142.667 312.919 C 142.143 313.605,141.714 314.303,141.714 314.468 C 141.714 314.634,141.270 315.182,140.727 315.685 C 138.837 317.436,140.883 318.365,143.520 316.952 C 144.301 316.533,145.275 316.190,145.684 316.190 C 146.092 316.190,147.123 315.858,147.975 315.451 C 149.567 314.690,151.751 313.859,154.545 312.951 C 155.422 312.666,156.493 312.078,156.926 311.645 C 157.360 311.212,158.032 310.857,158.421 310.857 C 159.084 310.857,160.278 310.005,162.135 308.206 C 162.576 307.778,163.096 307.429,163.290 307.429 C 164.212 307.429,171.429 300.197,171.429 299.273 C 171.429 299.040,171.771 298.636,172.190 298.374 C 172.610 298.112,172.952 297.710,172.952 297.480 C 172.952 297.250,173.381 296.553,173.905 295.931 C 174.429 295.308,174.857 294.383,174.857 293.876 C 174.857 293.368,175.029 292.952,175.238 292.952 C 175.448 292.952,175.619 292.503,175.619 291.953 C 175.619 290.670,174.680 291.321,174.294 292.873 C 174.152 293.440,173.534 294.676,172.920 295.619 C 172.306 296.562,171.591 297.667,171.331 298.075 C 169.381 301.129,161.341 308.173,157.393 310.286 C 156.610 310.705,155.552 311.348,155.043 311.714 C 154.533 312.081,153.764 312.381,153.333 312.381 C 152.903 312.381,152.127 312.678,151.609 313.042 C 150.585 313.760,148.096 314.734,144.693 315.748 C 143.502 316.102,142.402 316.518,142.248 316.672 C 141.838 317.083,140.952 317.014,140.952 316.571 C 140.952 316.362,141.210 316.190,141.524 316.190 C 141.838 316.190,142.095 315.881,142.095 315.503 C 142.095 315.124,142.524 314.234,143.048 313.524 C 143.571 312.814,144.000 312.032,144.000 311.787 C 144.000 311.542,144.386 310.849,144.857 310.249 C 146.128 308.630,146.133 294.999,144.864 292.000 C 144.421 290.952,143.958 289.486,143.836 288.741 C 143.713 287.995,143.271 286.716,142.854 285.898 C 142.437 285.080,142.095 284.095,142.095 283.709 C 142.095 283.324,141.759 282.374,141.347 281.599 C 140.936 280.824,139.950 278.842,139.157 277.194 C 137.597 273.954,136.504 271.910,135.057 269.524 C 134.549 268.686,133.836 267.443,133.472 266.762 C 132.717 265.348,132.013 265.099,132.393 266.381 M267.568 265.822 C 267.331 265.972,266.503 267.295,265.728 268.762 C 264.953 270.229,264.096 271.686,263.824 272.000 C 263.551 272.314,263.202 273.000,263.048 273.524 C 262.893 274.048,262.552 274.733,262.289 275.048 C 262.026 275.362,261.609 276.248,261.362 277.017 C 261.115 277.786,260.665 278.621,260.361 278.873 C 260.058 279.125,259.810 279.593,259.810 279.913 C 259.810 280.233,259.399 281.370,258.897 282.438 C 257.503 285.408,256.000 289.457,256.000 290.244 C 256.000 290.631,255.634 292.042,255.186 293.379 C 252.735 300.694,254.789 312.284,259.162 315.826 C 260.894 317.228,258.954 317.786,256.571 316.571 C 255.749 316.152,254.676 315.810,254.185 315.810 C 253.695 315.810,252.660 315.481,251.885 315.080 C 251.110 314.678,248.590 313.418,246.286 312.279 C 243.981 311.140,241.324 309.663,240.381 308.996 C 239.438 308.330,238.238 307.499,237.714 307.151 C 236.613 306.418,229.709 299.556,229.143 298.630 C 228.933 298.288,228.355 297.256,227.859 296.337 C 227.362 295.418,226.762 294.428,226.525 294.137 C 226.289 293.845,225.922 293.002,225.711 292.262 C 225.282 290.764,224.381 290.162,224.381 291.374 C 224.381 291.798,224.552 292.251,224.762 292.381 C 224.971 292.510,225.143 293.010,225.143 293.491 C 225.143 293.972,225.571 294.827,226.095 295.393 C 226.619 295.958,227.048 296.753,227.048 297.159 C 227.048 297.566,227.390 298.112,227.810 298.374 C 228.229 298.636,228.571 299.040,228.571 299.272 C 228.571 299.808,235.053 306.409,236.465 307.311 C 237.047 307.683,237.748 308.290,238.022 308.660 C 238.295 309.030,238.699 309.333,238.919 309.333 C 239.139 309.333,239.828 309.762,240.450 310.286 C 241.073 310.810,241.894 311.238,242.274 311.238 C 242.655 311.238,243.058 311.478,243.171 311.772 C 243.378 312.311,249.003 314.667,250.083 314.667 C 250.404 314.667,250.667 314.811,250.667 314.986 C 250.667 315.419,252.419 316.190,253.402 316.190 C 253.838 316.190,254.730 316.519,255.384 316.920 C 258.622 318.910,262.804 317.762,259.996 315.653 C 259.471 315.259,258.666 314.318,258.208 313.563 C 257.750 312.808,257.151 312.053,256.878 311.886 C 256.605 311.718,256.377 311.204,256.373 310.743 C 256.368 310.282,256.025 309.157,255.611 308.244 C 254.554 305.914,254.535 299.507,255.579 297.096 C 255.976 296.179,256.419 294.100,256.564 292.476 C 256.708 290.852,256.956 289.524,257.114 289.524 C 257.555 289.524,258.286 287.701,258.286 286.601 C 258.286 285.461,260.026 281.305,260.969 280.190 C 261.324 279.771,261.733 278.928,261.878 278.316 C 262.024 277.704,262.475 276.781,262.881 276.264 C 263.287 275.748,263.619 275.013,263.619 274.630 C 263.619 274.248,263.948 273.628,264.350 273.253 C 264.752 272.878,265.208 272.057,265.364 271.429 C 265.520 270.800,265.949 270.071,266.317 269.809 C 266.686 269.547,267.108 268.775,267.256 268.095 C 267.403 267.414,267.695 266.748,267.904 266.615 C 268.113 266.483,268.220 266.188,268.142 265.961 C 268.064 265.734,267.806 265.671,267.568 265.822 M180.373 307.197 C 179.819 307.602,179.748 307.849,180.074 308.244 C 180.308 308.529,180.622 309.578,180.770 310.576 C 180.919 311.574,181.337 312.774,181.700 313.243 C 182.063 313.712,182.473 314.940,182.611 315.972 C 182.748 317.004,183.128 318.144,183.454 318.504 C 183.780 318.864,184.197 320.223,184.381 321.524 C 184.565 322.824,184.968 324.171,185.276 324.516 C 185.585 324.861,185.958 326.000,186.107 327.048 C 186.255 328.095,186.677 329.295,187.045 329.714 C 187.463 330.191,187.790 331.373,187.917 332.871 C 188.029 334.188,188.398 335.689,188.737 336.206 C 189.076 336.724,189.521 338.029,189.726 339.107 C 189.930 340.185,190.310 341.323,190.570 341.637 C 190.830 341.950,191.252 343.232,191.507 344.486 C 191.763 345.741,192.215 347.044,192.511 347.383 C 192.807 347.723,193.129 348.882,193.227 349.959 C 193.337 351.173,193.717 352.315,194.226 352.963 C 194.693 353.556,195.048 354.554,195.048 355.272 C 195.048 356.578,195.729 358.476,196.199 358.476 C 196.346 358.476,196.559 359.511,196.674 360.775 C 196.900 363.263,198.982 367.429,200.000 367.429 C 201.018 367.429,203.100 363.263,203.326 360.775 C 203.441 359.511,203.654 358.476,203.801 358.476 C 204.271 358.476,204.952 356.578,204.952 355.272 C 204.952 354.554,205.307 353.556,205.774 352.963 C 206.277 352.324,206.669 351.158,206.784 349.961 C 206.887 348.885,207.288 347.575,207.673 347.050 C 208.059 346.525,208.485 345.238,208.620 344.190 C 208.754 343.143,209.097 342.017,209.381 341.688 C 209.666 341.359,210.067 340.203,210.272 339.119 C 210.478 338.035,210.924 336.724,211.263 336.206 C 211.602 335.689,211.971 334.188,212.083 332.871 C 212.210 331.373,212.537 330.191,212.955 329.714 C 213.323 329.295,213.745 328.095,213.893 327.048 C 214.042 326.000,214.415 324.861,214.724 324.516 C 215.032 324.171,215.433 322.843,215.613 321.565 C 215.805 320.209,216.271 318.824,216.733 318.236 C 217.231 317.603,217.524 316.672,217.524 315.723 C 217.524 314.823,217.813 313.848,218.242 313.303 C 218.637 312.801,219.081 311.574,219.230 310.576 C 219.378 309.578,219.670 308.555,219.878 308.302 C 220.943 307.008,218.445 306.376,216.395 307.421 C 215.566 307.844,214.361 308.190,213.717 308.190 C 213.074 308.190,211.481 308.574,210.178 309.043 C 208.017 309.821,207.127 309.896,200.000 309.896 C 192.873 309.896,191.983 309.821,189.822 309.043 C 188.519 308.574,186.926 308.190,186.283 308.190 C 185.639 308.190,184.440 307.848,183.619 307.429 C 181.850 306.526,181.340 306.490,180.373 307.197 " stroke="none" fill="#7cc4c4" fill-rule="evenodd"></path></g></svg>